<svg version="1.1" xmlns="http://www.w3.org/2000/svg" xmlns:xlink="http://www.w3.org/1999/xlink" width="496.65925" height="72.97895" viewBox="0,0,496.65925,72.97895"><g transform="translate(0.00438,42.05652)"><g data-paper-data="{&quot;isPaintingLayer&quot;:true}" fill-rule="nonzero" stroke="none" stroke-width="0" stroke-linecap="butt" stroke-linejoin="miter" stroke-miterlimit="10" stroke-dasharray="" stroke-dashoffset="0" style="mix-blend-mode: normal"><path d="M-0.00438,29.09261v-70.00691h30.55567v70.00691z" fill="#fe0000"/><path d="M29.681,29.45858v-70.00691h30.55567v70.00691z" fill="#67ff00"/><path d="M58.88236,28.71556v-70.00691h30.55567v70.00691z" fill="#8000ff"/><path d="M86.63163,30.1905v-70.00691h30.55567v70.00691z" fill="#0046ff"/><path d="M111.96077,30.55646v-70.00691h30.55567v70.00691z" fill="#e0ff00"/><path d="M139.22601,30.92243v-70.00691h30.55567v70.00691z" fill="#0046ff"/><path d="M166.49126,30.17941v-70.00691h30.55567v70.00691z" fill="#67ff00"/><path d="M190.85235,29.4364v-70.00691h30.55567v70.00691z" fill="#e0ff00"/><path d="M218.60162,29.80236v-70.00691h30.55567v70.00691z" fill="#0046ff"/><path d="M247.4932,28.3496v-70.00691h30.55567v70.00691z" fill="#67ff00"/><path d="M277.17858,28.71556v-70.00691h30.55567v70.00691z" fill="#0046ff"/><path d="M306.37994,27.97255v-70.00691h30.55567v70.00691z" fill="#fe0000"/><path d="M334.12921,29.44749v-70.00691h30.55567v70.00691z" fill="#fe0000"/><path d="M359.45835,29.81345v-70.00691h30.55567v70.00691z" fill="#e0ff00"/><path d="M386.7236,30.17941v-70.00691h30.55567v70.00691z" fill="#fe0000"/><path d="M413.98884,29.4364v-70.00691h30.55567v70.00691z" fill="#0046ff"/><path d="M438.34993,28.69339v-70.00691h30.55567v70.00691z" fill="#fe0000"/><path d="M466.0992,27.9504v-70.00692h30.55567v70.00692z" fill="#e0ff00"/></g></g></svg>