<svg version="1.1" xmlns="http://www.w3.org/2000/svg" xmlns:xlink="http://www.w3.org/1999/xlink" width="532.13956" height="23.19461" viewBox="0,0,532.13956,23.19461"><g transform="translate(45.38426,-55.44322)"><g data-paper-data="{&quot;isPaintingLayer&quot;:true}" fill-rule="nonzero" stroke="none" stroke-width="0" stroke-linecap="butt" stroke-linejoin="miter" stroke-miterlimit="10" stroke-dasharray="" stroke-dashoffset="0" style="mix-blend-mode: normal"><path d="M303.1808,55.44322v22.6587h-23.56506v-22.6587z" data-paper-data="{&quot;index&quot;:null}" fill="#ff5757"/><path d="M388.363,55.44322v22.6587h-23.56505v-22.6587z" data-paper-data="{&quot;index&quot;:null}" fill="#f96b6b"/><path d="M428.18079,55.44322v22.6587h-23.56505v-22.6587z" data-paper-data="{&quot;index&quot;:null}" fill="#e6fa34"/><path d="M448.35766,55.44322v22.6587h-23.56505v-22.6587z" data-paper-data="{&quot;index&quot;:null}" fill="#ff5757"/><path d="M486.7553,55.44322v22.6587h-23.56505v-22.6587z" data-paper-data="{&quot;index&quot;:null}" fill="#00ff90"/><path d="M467.81104,55.44322v22.6587h-23.56505v-22.6587z" data-paper-data="{&quot;index&quot;:null}" fill="#0090ff"/><path d="M-21.8192,55.44322v22.6587h-23.56506v-22.6587z" data-paper-data="{&quot;index&quot;:null}" fill="#fff800"/><path d="M1.57308,55.44322v22.6587h-23.56506v-22.6587z" data-paper-data="{&quot;index&quot;:null}" fill="#57b6ff"/><path d="M22.28584,55.44322v22.6587h-23.56506v-22.6587z" data-paper-data="{&quot;index&quot;:null}" fill="#ff5757"/><path d="M44.60631,55.44322v22.6587h-23.56506v-22.6587z" data-paper-data="{&quot;index&quot;:null}" fill="#fff800"/><path d="M67.46271,55.44322v22.6587h-23.56506v-22.6587z" data-paper-data="{&quot;index&quot;:null}" fill="#6e89ff"/><path d="M90.31906,55.97913v22.6587h-23.56505v-22.6587z" data-paper-data="{&quot;index&quot;:null}" fill="#f96b6b"/><path d="M113.17543,55.44322v22.6587h-23.56505v-22.6587z" data-paper-data="{&quot;index&quot;:null}" fill="#4ffa00"/><path d="M136.56771,55.44322v22.6587h-23.56505v-22.6587z" data-paper-data="{&quot;index&quot;:null}" fill="#e6fa34"/><path d="M203.18082,55.44322v22.6587h-23.56505v-22.6587z" data-paper-data="{&quot;index&quot;:null}" fill="#00ff90"/><path d="M221.21405,55.44322v22.6587h-23.56505v-22.6587z" data-paper-data="{&quot;index&quot;:null}" fill="#0090ff"/><path d="M135.32314,78.10192v-22.6587h23.56506v22.6587z" fill="#00ffff"/><path d="M154.96408,78.10192v-22.6587h23.56506v22.6587z" fill="#00ff90"/><path d="M177.28455,78.10192v-22.6587h23.56506v22.6587z" fill="#36ffcd"/><path d="M221.04125,78.10192v-22.6587h23.56506v22.6587z" fill="#ff0000"/><path d="M242.82582,78.10192v-22.6587h23.56506v22.6587z" fill="#009cff"/><path d="M300.32848,78.10192v-22.6587h23.56505v22.6587z" fill="#8735ff"/><path d="M321.57714,78.10192v-22.6587h23.56505v22.6587z" fill="#34fa55"/><path d="M258.1795,78.10192v-22.6587h23.56505v22.6587z" fill="#10fa00"/><path d="M341.75402,78.10192v-22.6587h23.56505v22.6587z" fill="#0090ff"/><path d="M385.85906,78.10192v-22.6587h23.56505v22.6587z" fill="#00ff90"/></g></g></svg>