<svg version="1.1" xmlns="http://www.w3.org/2000/svg" xmlns:xlink="http://www.w3.org/1999/xlink" width="549.28276" height="387.18157" viewBox="0,0,549.28276,387.18157"><g transform="translate(45.84129,-55.44322)"><g data-paper-data="{&quot;isPaintingLayer&quot;:true}" fill-rule="nonzero" stroke="none" stroke-width="0" stroke-linecap="butt" stroke-linejoin="miter" stroke-miterlimit="10" stroke-dasharray="" stroke-dashoffset="0" style="mix-blend-mode: normal"><path d="M252.9557,201.87569v22.6587h-23.56506v-22.6587z" data-paper-data="{&quot;index&quot;:null}" fill="#fff800"/><path d="M252.9557,226.17073v22.6587h-23.56506v-22.6587z" data-paper-data="{&quot;index&quot;:null}" fill="#00ff21"/><path d="M252.9557,250.46577v22.6587h-23.56506v-22.6587z" data-paper-data="{&quot;index&quot;:null}" fill="#00ffff"/><path d="M277.9557,201.87569v22.6587h-23.56506v-22.6587z" data-paper-data="{&quot;index&quot;:null}" fill="#57b6ff"/><path d="M277.9557,226.17073v22.6587h-23.56506v-22.6587z" data-paper-data="{&quot;index&quot;:null}" fill="#0090ff"/><path d="M277.9557,250.46577v22.6587h-23.56506v-22.6587z" data-paper-data="{&quot;index&quot;:null}" fill="#00ff90"/><path d="M302.9557,201.87569v22.6587h-23.56506v-22.6587z" data-paper-data="{&quot;index&quot;:null}" fill="#ff5757"/><path d="M302.9557,226.17073v22.6587h-23.56506v-22.6587z" data-paper-data="{&quot;index&quot;:null}" fill="#8735ff"/><path d="M302.9557,250.46577v22.6587h-23.56506v-22.6587z" data-paper-data="{&quot;index&quot;:null}" fill="#36ffcd"/><path d="M327.9557,201.87569v22.6587h-23.56506v-22.6587z" data-paper-data="{&quot;index&quot;:null}" fill="#fff800"/><path d="M327.9557,226.17073v22.6587h-23.56506v-22.6587z" data-paper-data="{&quot;index&quot;:null}" fill="#4ffa00"/><path d="M327.9557,250.46577v22.6587h-23.56506v-22.6587z" data-paper-data="{&quot;index&quot;:null}" fill="#ff0000"/><path d="M352.95571,201.87569v22.6587h-23.56506v-22.6587z" data-paper-data="{&quot;index&quot;:null}" fill="#6e89ff"/><path d="M352.95571,226.17073v22.6587h-23.56506v-22.6587z" data-paper-data="{&quot;index&quot;:null}" fill="#9bff6e"/><path d="M352.95571,250.46577v22.6587h-23.56506v-22.6587z" data-paper-data="{&quot;index&quot;:null}" fill="#009cff"/><path d="M377.95569,201.87569v22.6587h-23.56505v-22.6587z" data-paper-data="{&quot;index&quot;:null}" fill="#f96b6b"/><path d="M377.95569,226.17073v22.6587h-23.56505v-22.6587z" data-paper-data="{&quot;index&quot;:null}" fill="#00fab1"/><path d="M377.95569,250.46577v22.6587h-23.56505v-22.6587z" data-paper-data="{&quot;index&quot;:null}" fill="#10fa00"/><path d="M402.95569,201.87569v22.6587h-23.56505v-22.6587z" data-paper-data="{&quot;index&quot;:null}" fill="#4ffa00"/><path d="M402.95569,226.17073v22.6587h-23.56505v-22.6587z" data-paper-data="{&quot;index&quot;:null}" fill="#e6fa34"/><path d="M402.95569,250.46577v22.6587h-23.56505v-22.6587z" data-paper-data="{&quot;index&quot;:null}" fill="#8735ff"/><path d="M427.95569,201.87569v22.6587h-23.56505v-22.6587z" data-paper-data="{&quot;index&quot;:null}" fill="#e6fa34"/><path d="M427.95569,226.17073v22.6587h-23.56505v-22.6587z" data-paper-data="{&quot;index&quot;:null}" fill="#ff0000"/><path d="M427.95569,250.46577v22.6587h-23.56505v-22.6587z" data-paper-data="{&quot;index&quot;:null}" fill="#34fa55"/><path d="M452.95571,201.87569v22.6587h-23.56505v-22.6587z" data-paper-data="{&quot;index&quot;:null}" fill="#ff5757"/><path d="M452.95571,226.17073v22.6587h-23.56505v-22.6587z" data-paper-data="{&quot;index&quot;:null}" fill="#8735ff"/><path d="M452.95571,250.46577v22.6587h-23.56505v-22.6587z" data-paper-data="{&quot;index&quot;:null}" fill="#0090ff"/><path d="M477.95571,201.87569v22.6587h-23.56505v-22.6587z" data-paper-data="{&quot;index&quot;:null}" fill="#00ff90"/><path d="M477.95571,226.17073v22.6587h-23.56505v-22.6587z" data-paper-data="{&quot;index&quot;:null}" fill="#009cff"/><path d="M477.95571,250.46577v22.6587h-23.56505v-22.6587z" data-paper-data="{&quot;index&quot;:null}" fill="#e6fa34"/><path d="M502.95571,201.87569v22.6587h-23.56505v-22.6587z" data-paper-data="{&quot;index&quot;:null}" fill="#0090ff"/><path d="M502.95571,226.17073v22.6587h-23.56505v-22.6587z" data-paper-data="{&quot;index&quot;:null}" fill="#ff0000"/><path d="M502.95571,250.46577v22.6587h-23.56505v-22.6587z" data-paper-data="{&quot;index&quot;:null}" fill="#00ff90"/><path d="M-22.0443,201.87569v22.6587h-23.56506v-22.6587z" data-paper-data="{&quot;index&quot;:null}" fill="#fff800"/><path d="M-22.0443,226.17074v22.6587h-23.56506v-22.6587z" data-paper-data="{&quot;index&quot;:null}" fill="#00ff21"/><path d="M-22.0443,250.46579v22.6587h-23.56506v-22.6587z" data-paper-data="{&quot;index&quot;:null}" fill="#00ffff"/><path d="M2.9557,201.87569v22.6587h-23.56506v-22.6587z" data-paper-data="{&quot;index&quot;:null}" fill="#57b6ff"/><path d="M2.9557,226.17074v22.6587h-23.56506v-22.6587z" data-paper-data="{&quot;index&quot;:null}" fill="#0090ff"/><path d="M2.9557,250.46579v22.6587h-23.56506v-22.6587z" data-paper-data="{&quot;index&quot;:null}" fill="#00ff90"/><path d="M27.9557,201.87569v22.6587h-23.56506v-22.6587z" data-paper-data="{&quot;index&quot;:null}" fill="#ff5757"/><path d="M27.9557,226.17074v22.6587h-23.56506v-22.6587z" data-paper-data="{&quot;index&quot;:null}" fill="#8735ff"/><path d="M27.9557,250.46579v22.6587h-23.56506v-22.6587z" data-paper-data="{&quot;index&quot;:null}" fill="#36ffcd"/><path d="M52.9557,201.87569v22.6587h-23.56506v-22.6587z" data-paper-data="{&quot;index&quot;:null}" fill="#fff800"/><path d="M52.9557,226.17074v22.6587h-23.56506v-22.6587z" data-paper-data="{&quot;index&quot;:null}" fill="#4ffa00"/><path d="M52.9557,250.46579v22.6587h-23.56506v-22.6587z" data-paper-data="{&quot;index&quot;:null}" fill="#ff0000"/><path d="M77.95572,201.87569v22.6587h-23.56506v-22.6587z" data-paper-data="{&quot;index&quot;:null}" fill="#6e89ff"/><path d="M77.95572,226.17074v22.6587h-23.56506v-22.6587z" data-paper-data="{&quot;index&quot;:null}" fill="#9bff6e"/><path d="M77.95572,250.46579v22.6587h-23.56506v-22.6587z" data-paper-data="{&quot;index&quot;:null}" fill="#009cff"/><path d="M102.9557,201.87569v22.6587h-23.56505v-22.6587z" data-paper-data="{&quot;index&quot;:null}" fill="#f96b6b"/><path d="M102.9557,226.17074v22.6587h-23.56505v-22.6587z" data-paper-data="{&quot;index&quot;:null}" fill="#00fab1"/><path d="M102.9557,250.46579v22.6587h-23.56505v-22.6587z" data-paper-data="{&quot;index&quot;:null}" fill="#10fa00"/><path d="M127.9557,201.87569v22.6587h-23.56505v-22.6587z" data-paper-data="{&quot;index&quot;:null}" fill="#4ffa00"/><path d="M127.9557,226.17074v22.6587h-23.56505v-22.6587z" data-paper-data="{&quot;index&quot;:null}" fill="#e6fa34"/><path d="M127.9557,250.46579v22.6587h-23.56505v-22.6587z" data-paper-data="{&quot;index&quot;:null}" fill="#8735ff"/><path d="M152.9557,201.87569v22.6587h-23.56505v-22.6587z" data-paper-data="{&quot;index&quot;:null}" fill="#e6fa34"/><path d="M152.9557,226.17074v22.6587h-23.56505v-22.6587z" data-paper-data="{&quot;index&quot;:null}" fill="#ff0000"/><path d="M152.9557,250.46579v22.6587h-23.56505v-22.6587z" data-paper-data="{&quot;index&quot;:null}" fill="#34fa55"/><path d="M177.95572,201.87569v22.6587h-23.56505v-22.6587z" data-paper-data="{&quot;index&quot;:null}" fill="#ff5757"/><path d="M177.95572,226.17074v22.6587h-23.56505v-22.6587z" data-paper-data="{&quot;index&quot;:null}" fill="#8735ff"/><path d="M177.95572,250.46579v22.6587h-23.56505v-22.6587z" data-paper-data="{&quot;index&quot;:null}" fill="#0090ff"/><path d="M202.95572,201.87569v22.6587h-23.56505v-22.6587z" data-paper-data="{&quot;index&quot;:null}" fill="#00ff90"/><path d="M202.95572,226.17074v22.6587h-23.56505v-22.6587z" data-paper-data="{&quot;index&quot;:null}" fill="#009cff"/><path d="M202.95572,250.46579v22.6587h-23.56505v-22.6587z" data-paper-data="{&quot;index&quot;:null}" fill="#e6fa34"/><path d="M227.95572,201.87569v22.6587h-23.56505v-22.6587z" data-paper-data="{&quot;index&quot;:null}" fill="#0090ff"/><path d="M227.95572,226.17074v22.6587h-23.56505v-22.6587z" data-paper-data="{&quot;index&quot;:null}" fill="#ff0000"/><path d="M227.95572,250.46579v22.6587h-23.56505v-22.6587z" data-paper-data="{&quot;index&quot;:null}" fill="#00ff90"/><path d="M154.39064,273.12442v-22.6587h23.56506v22.6587z" fill="#fff800"/><path d="M154.39064,248.82942v-22.6587h23.56506v22.6587z" fill="#00ff21"/><path d="M154.39064,224.53437v-22.6587h23.56506v22.6587z" fill="#00ffff"/><path d="M179.39064,273.12442v-22.6587h23.56506v22.6587z" fill="#57b6ff"/><path d="M179.39064,248.82942v-22.6587h23.56506v22.6587z" fill="#0090ff"/><path d="M179.39064,224.53437v-22.6587h23.56506v22.6587z" fill="#00ff90"/><path d="M204.39064,273.12442v-22.6587h23.56506v22.6587z" fill="#ff5757"/><path d="M204.39064,248.82942v-22.6587h23.56506v22.6587z" fill="#8735ff"/><path d="M204.39064,224.53437v-22.6587h23.56506v22.6587z" fill="#36ffcd"/><path d="M229.39064,273.12442v-22.6587h23.56506v22.6587z" fill="#fff800"/><path d="M229.39064,248.82942v-22.6587h23.56506v22.6587z" fill="#4ffa00"/><path d="M229.39064,224.53437v-22.6587h23.56506v22.6587z" fill="#ff0000"/><path d="M254.39064,273.12442v-22.6587h23.56506v22.6587z" fill="#6e89ff"/><path d="M254.39064,248.82942v-22.6587h23.56506v22.6587z" fill="#9bff6e"/><path d="M254.39064,224.53437v-22.6587h23.56506v22.6587z" fill="#009cff"/><path d="M279.39063,273.12442v-22.6587h23.56505v22.6587z" fill="#f96b6b"/><path d="M279.39063,248.82942v-22.6587h23.56505v22.6587z" fill="#00fab1"/><path d="M279.39063,224.53437v-22.6587h23.56505v22.6587z" fill="#10fa00"/><path d="M304.39063,273.12442v-22.6587h23.56505v22.6587z" fill="#4ffa00"/><path d="M304.39063,248.82942v-22.6587h23.56505v22.6587z" fill="#e6fa34"/><path d="M304.39063,224.53437v-22.6587h23.56505v22.6587z" fill="#8735ff"/><path d="M329.39063,273.12442v-22.6587h23.56505v22.6587z" fill="#e6fa34"/><path d="M329.39063,248.82942v-22.6587h23.56505v22.6587z" fill="#ff0000"/><path d="M329.39063,224.53437v-22.6587h23.56505v22.6587z" fill="#34fa55"/><path d="M354.39066,273.12442v-22.6587h23.56505v22.6587z" fill="#ff5757"/><path d="M354.39066,248.82942v-22.6587h23.56505v22.6587z" fill="#8735ff"/><path d="M354.39066,224.53437v-22.6587h23.56505v22.6587z" fill="#0090ff"/><path d="M379.39066,273.12442v-22.6587h23.56505v22.6587z" fill="#00ff90"/><path d="M379.39066,248.82942v-22.6587h23.56505v22.6587z" fill="#009cff"/><path d="M379.39066,224.53437v-22.6587h23.56505v22.6587z" fill="#e6fa34"/><path d="M404.39066,273.12442v-22.6587h23.56505v22.6587z" fill="#0090ff"/><path d="M404.39066,248.82942v-22.6587h23.56505v22.6587z" fill="#ff0000"/><path d="M404.39066,224.53437v-22.6587h23.56505v22.6587z" fill="#00ff90"/><path d="M252.90221,275.38758v22.6587h-23.56506v-22.6587z" data-paper-data="{&quot;index&quot;:null}" fill="#fff800"/><path d="M252.90221,299.68261v22.6587h-23.56506v-22.6587z" data-paper-data="{&quot;index&quot;:null}" fill="#00ff21"/><path d="M252.90221,323.97764v22.6587h-23.56506v-22.6587z" data-paper-data="{&quot;index&quot;:null}" fill="#00ffff"/><path d="M277.90221,275.38758v22.6587h-23.56506v-22.6587z" data-paper-data="{&quot;index&quot;:null}" fill="#57b6ff"/><path d="M277.90221,299.68261v22.6587h-23.56506v-22.6587z" data-paper-data="{&quot;index&quot;:null}" fill="#0090ff"/><path d="M277.90221,323.97764v22.6587h-23.56506v-22.6587z" data-paper-data="{&quot;index&quot;:null}" fill="#00ff90"/><path d="M302.90221,275.38758v22.6587h-23.56506v-22.6587z" data-paper-data="{&quot;index&quot;:null}" fill="#ff5757"/><path d="M302.90221,299.68261v22.6587h-23.56506v-22.6587z" data-paper-data="{&quot;index&quot;:null}" fill="#8735ff"/><path d="M302.90221,323.97764v22.6587h-23.56506v-22.6587z" data-paper-data="{&quot;index&quot;:null}" fill="#36ffcd"/><path d="M327.90221,275.38758v22.6587h-23.56506v-22.6587z" data-paper-data="{&quot;index&quot;:null}" fill="#fff800"/><path d="M327.90221,299.68261v22.6587h-23.56506v-22.6587z" data-paper-data="{&quot;index&quot;:null}" fill="#4ffa00"/><path d="M327.90221,323.97764v22.6587h-23.56506v-22.6587z" data-paper-data="{&quot;index&quot;:null}" fill="#ff0000"/><path d="M352.90222,275.38758v22.6587h-23.56506v-22.6587z" data-paper-data="{&quot;index&quot;:null}" fill="#6e89ff"/><path d="M352.90222,299.68261v22.6587h-23.56506v-22.6587z" data-paper-data="{&quot;index&quot;:null}" fill="#9bff6e"/><path d="M352.90222,323.97764v22.6587h-23.56506v-22.6587z" data-paper-data="{&quot;index&quot;:null}" fill="#009cff"/><path d="M377.9022,275.38758v22.6587h-23.56505v-22.6587z" data-paper-data="{&quot;index&quot;:null}" fill="#f96b6b"/><path d="M377.9022,299.68261v22.6587h-23.56505v-22.6587z" data-paper-data="{&quot;index&quot;:null}" fill="#00fab1"/><path d="M377.9022,323.97764v22.6587h-23.56505v-22.6587z" data-paper-data="{&quot;index&quot;:null}" fill="#10fa00"/><path d="M402.9022,275.38758v22.6587h-23.56505v-22.6587z" data-paper-data="{&quot;index&quot;:null}" fill="#4ffa00"/><path d="M402.9022,299.68261v22.6587h-23.56505v-22.6587z" data-paper-data="{&quot;index&quot;:null}" fill="#e6fa34"/><path d="M402.9022,323.97764v22.6587h-23.56505v-22.6587z" data-paper-data="{&quot;index&quot;:null}" fill="#8735ff"/><path d="M427.9022,275.38758v22.6587h-23.56505v-22.6587z" data-paper-data="{&quot;index&quot;:null}" fill="#e6fa34"/><path d="M427.9022,299.68261v22.6587h-23.56505v-22.6587z" data-paper-data="{&quot;index&quot;:null}" fill="#ff0000"/><path d="M427.9022,323.97764v22.6587h-23.56505v-22.6587z" data-paper-data="{&quot;index&quot;:null}" fill="#34fa55"/><path d="M452.90222,275.38758v22.6587h-23.56505v-22.6587z" data-paper-data="{&quot;index&quot;:null}" fill="#ff5757"/><path d="M452.90222,299.68261v22.6587h-23.56505v-22.6587z" data-paper-data="{&quot;index&quot;:null}" fill="#8735ff"/><path d="M452.90222,323.97764v22.6587h-23.56505v-22.6587z" data-paper-data="{&quot;index&quot;:null}" fill="#0090ff"/><path d="M477.90222,275.38758v22.6587h-23.56505v-22.6587z" data-paper-data="{&quot;index&quot;:null}" fill="#00ff90"/><path d="M477.90222,299.68261v22.6587h-23.56505v-22.6587z" data-paper-data="{&quot;index&quot;:null}" fill="#009cff"/><path d="M477.90222,323.97764v22.6587h-23.56505v-22.6587z" data-paper-data="{&quot;index&quot;:null}" fill="#e6fa34"/><path d="M502.90222,275.38758v22.6587h-23.56505v-22.6587z" data-paper-data="{&quot;index&quot;:null}" fill="#0090ff"/><path d="M502.90222,299.68261v22.6587h-23.56505v-22.6587z" data-paper-data="{&quot;index&quot;:null}" fill="#ff0000"/><path d="M502.90222,323.97764v22.6587h-23.56505v-22.6587z" data-paper-data="{&quot;index&quot;:null}" fill="#00ff90"/><path d="M2.90221,275.38758v22.6587h-23.56506v-22.6587z" data-paper-data="{&quot;index&quot;:null}" fill="#57b6ff"/><path d="M2.90221,299.68261v22.6587h-23.56506v-22.6587z" data-paper-data="{&quot;index&quot;:null}" fill="#0090ff"/><path d="M2.90221,323.97764v22.6587h-23.56506v-22.6587z" data-paper-data="{&quot;index&quot;:null}" fill="#00ff90"/><path d="M27.90221,275.38758v22.6587h-23.56506v-22.6587z" data-paper-data="{&quot;index&quot;:null}" fill="#ff5757"/><path d="M27.90221,299.68261v22.6587h-23.56506v-22.6587z" data-paper-data="{&quot;index&quot;:null}" fill="#8735ff"/><path d="M27.90221,323.97764v22.6587h-23.56506v-22.6587z" data-paper-data="{&quot;index&quot;:null}" fill="#36ffcd"/><path d="M52.90221,275.38758v22.6587h-23.56506v-22.6587z" data-paper-data="{&quot;index&quot;:null}" fill="#fff800"/><path d="M52.90221,299.68261v22.6587h-23.56506v-22.6587z" data-paper-data="{&quot;index&quot;:null}" fill="#4ffa00"/><path d="M52.90221,323.97764v22.6587h-23.56506v-22.6587z" data-paper-data="{&quot;index&quot;:null}" fill="#ff0000"/><path d="M77.90223,275.38758v22.6587h-23.56506v-22.6587z" data-paper-data="{&quot;index&quot;:null}" fill="#6e89ff"/><path d="M77.90223,299.68261v22.6587h-23.56506v-22.6587z" data-paper-data="{&quot;index&quot;:null}" fill="#9bff6e"/><path d="M77.90223,323.97764v22.6587h-23.56506v-22.6587z" data-paper-data="{&quot;index&quot;:null}" fill="#009cff"/><path d="M102.90221,275.38758v22.6587h-23.56505v-22.6587z" data-paper-data="{&quot;index&quot;:null}" fill="#f96b6b"/><path d="M102.90221,299.68261v22.6587h-23.56505v-22.6587z" data-paper-data="{&quot;index&quot;:null}" fill="#00fab1"/><path d="M102.90221,323.97764v22.6587h-23.56505v-22.6587z" data-paper-data="{&quot;index&quot;:null}" fill="#10fa00"/><path d="M127.90221,275.38758v22.6587h-23.56505v-22.6587z" data-paper-data="{&quot;index&quot;:null}" fill="#4ffa00"/><path d="M127.90221,299.68261v22.6587h-23.56505v-22.6587z" data-paper-data="{&quot;index&quot;:null}" fill="#e6fa34"/><path d="M127.90221,323.97764v22.6587h-23.56505v-22.6587z" data-paper-data="{&quot;index&quot;:null}" fill="#8735ff"/><path d="M152.90221,275.38758v22.6587h-23.56505v-22.6587z" data-paper-data="{&quot;index&quot;:null}" fill="#e6fa34"/><path d="M152.90221,299.68261v22.6587h-23.56505v-22.6587z" data-paper-data="{&quot;index&quot;:null}" fill="#ff0000"/><path d="M152.90221,323.97764v22.6587h-23.56505v-22.6587z" data-paper-data="{&quot;index&quot;:null}" fill="#34fa55"/><path d="M177.90223,275.38758v22.6587h-23.56505v-22.6587z" data-paper-data="{&quot;index&quot;:null}" fill="#ff5757"/><path d="M177.90223,299.68261v22.6587h-23.56505v-22.6587z" data-paper-data="{&quot;index&quot;:null}" fill="#8735ff"/><path d="M177.90223,323.97764v22.6587h-23.56505v-22.6587z" data-paper-data="{&quot;index&quot;:null}" fill="#0090ff"/><path d="M202.90223,275.38758v22.6587h-23.56505v-22.6587z" data-paper-data="{&quot;index&quot;:null}" fill="#00ff90"/><path d="M202.90223,299.68261v22.6587h-23.56505v-22.6587z" data-paper-data="{&quot;index&quot;:null}" fill="#009cff"/><path d="M202.90223,323.97764v22.6587h-23.56505v-22.6587z" data-paper-data="{&quot;index&quot;:null}" fill="#e6fa34"/><path d="M227.90223,275.38758v22.6587h-23.56505v-22.6587z" data-paper-data="{&quot;index&quot;:null}" fill="#0090ff"/><path d="M227.90223,299.68261v22.6587h-23.56505v-22.6587z" data-paper-data="{&quot;index&quot;:null}" fill="#ff0000"/><path d="M227.90223,323.97764v22.6587h-23.56505v-22.6587z" data-paper-data="{&quot;index&quot;:null}" fill="#00ff90"/><path d="M154.33715,346.63637v-22.6587h23.56506v22.6587z" fill="#fff800"/><path d="M154.33715,322.34134v-22.6587h23.56506v22.6587z" fill="#00ff21"/><path d="M154.33715,298.04625v-22.6587h23.56506v22.6587z" fill="#00ffff"/><path d="M179.33715,346.63637v-22.6587h23.56506v22.6587z" fill="#57b6ff"/><path d="M179.33715,322.34134v-22.6587h23.56506v22.6587z" fill="#0090ff"/><path d="M179.33715,298.04625v-22.6587h23.56506v22.6587z" fill="#00ff90"/><path d="M204.33715,346.63637v-22.6587h23.56506v22.6587z" fill="#ff5757"/><path d="M204.33715,322.34134v-22.6587h23.56506v22.6587z" fill="#8735ff"/><path d="M204.33715,298.04625v-22.6587h23.56506v22.6587z" fill="#36ffcd"/><path d="M229.33715,346.63637v-22.6587h23.56506v22.6587z" fill="#fff800"/><path d="M229.33715,322.34134v-22.6587h23.56506v22.6587z" fill="#4ffa00"/><path d="M229.33715,298.04625v-22.6587h23.56506v22.6587z" fill="#ff0000"/><path d="M254.33715,346.63637v-22.6587h23.56506v22.6587z" fill="#6e89ff"/><path d="M254.33715,322.34134v-22.6587h23.56506v22.6587z" fill="#9bff6e"/><path d="M254.33715,298.04625v-22.6587h23.56506v22.6587z" fill="#009cff"/><path d="M279.33715,346.63637v-22.6587h23.56505v22.6587z" fill="#f96b6b"/><path d="M279.33715,322.34134v-22.6587h23.56505v22.6587z" fill="#00fab1"/><path d="M279.33715,298.04625v-22.6587h23.56505v22.6587z" fill="#10fa00"/><path d="M304.33715,346.63637v-22.6587h23.56505v22.6587z" fill="#4ffa00"/><path d="M304.33715,322.34134v-22.6587h23.56505v22.6587z" fill="#e6fa34"/><path d="M304.33715,298.04625v-22.6587h23.56505v22.6587z" fill="#8735ff"/><path d="M329.33715,346.63637v-22.6587h23.56505v22.6587z" fill="#e6fa34"/><path d="M329.33715,322.34134v-22.6587h23.56505v22.6587z" fill="#ff0000"/><path d="M329.33715,298.04625v-22.6587h23.56505v22.6587z" fill="#34fa55"/><path d="M354.33717,346.63637v-22.6587h23.56505v22.6587z" fill="#ff5757"/><path d="M354.33717,322.34134v-22.6587h23.56505v22.6587z" fill="#8735ff"/><path d="M354.33717,298.04625v-22.6587h23.56505v22.6587z" fill="#0090ff"/><path d="M379.33717,346.63637v-22.6587h23.56505v22.6587z" fill="#00ff90"/><path d="M379.33717,322.34134v-22.6587h23.56505v22.6587z" fill="#009cff"/><path d="M379.33717,298.04625v-22.6587h23.56505v22.6587z" fill="#e6fa34"/><path d="M404.33717,346.63637v-22.6587h23.56505v22.6587z" fill="#0090ff"/><path d="M404.33717,322.34134v-22.6587h23.56505v22.6587z" fill="#ff0000"/><path d="M404.33717,298.04625v-22.6587h23.56505v22.6587z" fill="#00ff90"/><path d="M253.1808,55.44322v22.6587h-23.56506v-22.6587z" data-paper-data="{&quot;index&quot;:null}" fill="#fff800"/><path d="M253.1808,79.73824v22.6587h-23.56506v-22.6587z" data-paper-data="{&quot;index&quot;:null}" fill="#00ff21"/><path d="M253.1808,104.03331v22.6587h-23.56506v-22.6587z" data-paper-data="{&quot;index&quot;:null}" fill="#00ffff"/><path d="M278.1808,55.44322v22.6587h-23.56506v-22.6587z" data-paper-data="{&quot;index&quot;:null}" fill="#57b6ff"/><path d="M278.1808,79.73824v22.6587h-23.56506v-22.6587z" data-paper-data="{&quot;index&quot;:null}" fill="#0090ff"/><path d="M278.1808,104.03331v22.6587h-23.56506v-22.6587z" data-paper-data="{&quot;index&quot;:null}" fill="#00ff90"/><path d="M303.1808,55.44322v22.6587h-23.56506v-22.6587z" data-paper-data="{&quot;index&quot;:null}" fill="#ff5757"/><path d="M303.1808,79.73824v22.6587h-23.56506v-22.6587z" data-paper-data="{&quot;index&quot;:null}" fill="#8735ff"/><path d="M303.1808,104.03331v22.6587h-23.56506v-22.6587z" data-paper-data="{&quot;index&quot;:null}" fill="#36ffcd"/><path d="M328.1808,55.44322v22.6587h-23.56506v-22.6587z" data-paper-data="{&quot;index&quot;:null}" fill="#fff800"/><path d="M328.1808,79.73824v22.6587h-23.56506v-22.6587z" data-paper-data="{&quot;index&quot;:null}" fill="#4ffa00"/><path d="M328.1808,104.03331v22.6587h-23.56506v-22.6587z" data-paper-data="{&quot;index&quot;:null}" fill="#ff0000"/><path d="M353.18081,55.44322v22.6587h-23.56506v-22.6587z" data-paper-data="{&quot;index&quot;:null}" fill="#6e89ff"/><path d="M353.18081,79.73824v22.6587h-23.56506v-22.6587z" data-paper-data="{&quot;index&quot;:null}" fill="#9bff6e"/><path d="M353.18081,104.03331v22.6587h-23.56506v-22.6587z" data-paper-data="{&quot;index&quot;:null}" fill="#009cff"/><path d="M378.18079,55.44322v22.6587h-23.56505v-22.6587z" data-paper-data="{&quot;index&quot;:null}" fill="#f96b6b"/><path d="M378.18079,79.73824v22.6587h-23.56505v-22.6587z" data-paper-data="{&quot;index&quot;:null}" fill="#00fab1"/><path d="M378.18079,104.03331v22.6587h-23.56505v-22.6587z" data-paper-data="{&quot;index&quot;:null}" fill="#10fa00"/><path d="M403.18079,55.44322v22.6587h-23.56505v-22.6587z" data-paper-data="{&quot;index&quot;:null}" fill="#4ffa00"/><path d="M403.18079,79.73824v22.6587h-23.56505v-22.6587z" data-paper-data="{&quot;index&quot;:null}" fill="#e6fa34"/><path d="M403.18079,104.03331v22.6587h-23.56505v-22.6587z" data-paper-data="{&quot;index&quot;:null}" fill="#8735ff"/><path d="M428.18079,55.44322v22.6587h-23.56505v-22.6587z" data-paper-data="{&quot;index&quot;:null}" fill="#e6fa34"/><path d="M428.18079,79.73824v22.6587h-23.56505v-22.6587z" data-paper-data="{&quot;index&quot;:null}" fill="#ff0000"/><path d="M428.18079,104.03331v22.6587h-23.56505v-22.6587z" data-paper-data="{&quot;index&quot;:null}" fill="#34fa55"/><path d="M453.18081,55.44322v22.6587h-23.56505v-22.6587z" data-paper-data="{&quot;index&quot;:null}" fill="#ff5757"/><path d="M453.18081,79.73824v22.6587h-23.56505v-22.6587z" data-paper-data="{&quot;index&quot;:null}" fill="#8735ff"/><path d="M453.18081,104.03331v22.6587h-23.56505v-22.6587z" data-paper-data="{&quot;index&quot;:null}" fill="#0090ff"/><path d="M478.18081,55.44322v22.6587h-23.56505v-22.6587z" data-paper-data="{&quot;index&quot;:null}" fill="#00ff90"/><path d="M478.18081,79.73824v22.6587h-23.56505v-22.6587z" data-paper-data="{&quot;index&quot;:null}" fill="#009cff"/><path d="M478.18081,104.03331v22.6587h-23.56505v-22.6587z" data-paper-data="{&quot;index&quot;:null}" fill="#e6fa34"/><path d="M503.18081,55.44322v22.6587h-23.56505v-22.6587z" data-paper-data="{&quot;index&quot;:null}" fill="#0090ff"/><path d="M503.18081,79.73824v22.6587h-23.56505v-22.6587z" data-paper-data="{&quot;index&quot;:null}" fill="#ff0000"/><path d="M503.18081,104.03331v22.6587h-23.56505v-22.6587z" data-paper-data="{&quot;index&quot;:null}" fill="#00ff90"/><path d="M-21.8192,55.44322v22.6587h-23.56506v-22.6587z" data-paper-data="{&quot;index&quot;:null}" fill="#fff800"/><path d="M-21.8192,79.73825v22.6587h-23.56506v-22.6587z" data-paper-data="{&quot;index&quot;:null}" fill="#00ff21"/><path d="M-21.8192,104.03332v22.6587h-23.56506v-22.6587z" data-paper-data="{&quot;index&quot;:null}" fill="#00ffff"/><path d="M3.1808,55.44322v22.6587h-23.56506v-22.6587z" data-paper-data="{&quot;index&quot;:null}" fill="#57b6ff"/><path d="M3.1808,79.73825v22.6587h-23.56506v-22.6587z" data-paper-data="{&quot;index&quot;:null}" fill="#0090ff"/><path d="M3.1808,104.03332v22.6587h-23.56506v-22.6587z" data-paper-data="{&quot;index&quot;:null}" fill="#00ff90"/><path d="M28.1808,55.44322v22.6587h-23.56506v-22.6587z" data-paper-data="{&quot;index&quot;:null}" fill="#ff5757"/><path d="M28.1808,79.73825v22.6587h-23.56506v-22.6587z" data-paper-data="{&quot;index&quot;:null}" fill="#8735ff"/><path d="M28.1808,104.03332v22.6587h-23.56506v-22.6587z" data-paper-data="{&quot;index&quot;:null}" fill="#36ffcd"/><path d="M53.1808,55.44322v22.6587h-23.56506v-22.6587z" data-paper-data="{&quot;index&quot;:null}" fill="#fff800"/><path d="M53.1808,79.73825v22.6587h-23.56506v-22.6587z" data-paper-data="{&quot;index&quot;:null}" fill="#4ffa00"/><path d="M53.1808,104.03332v22.6587h-23.56506v-22.6587z" data-paper-data="{&quot;index&quot;:null}" fill="#ff0000"/><path d="M78.18082,55.44322v22.6587h-23.56506v-22.6587z" data-paper-data="{&quot;index&quot;:null}" fill="#6e89ff"/><path d="M78.18082,79.73825v22.6587h-23.56506v-22.6587z" data-paper-data="{&quot;index&quot;:null}" fill="#9bff6e"/><path d="M78.18082,104.03332v22.6587h-23.56506v-22.6587z" data-paper-data="{&quot;index&quot;:null}" fill="#009cff"/><path d="M103.1808,55.44322v22.6587h-23.56505v-22.6587z" data-paper-data="{&quot;index&quot;:null}" fill="#f96b6b"/><path d="M103.1808,79.73825v22.6587h-23.56505v-22.6587z" data-paper-data="{&quot;index&quot;:null}" fill="#00fab1"/><path d="M103.1808,104.03332v22.6587h-23.56505v-22.6587z" data-paper-data="{&quot;index&quot;:null}" fill="#10fa00"/><path d="M128.18079,55.44322v22.6587h-23.56505v-22.6587z" data-paper-data="{&quot;index&quot;:null}" fill="#4ffa00"/><path d="M128.18079,79.73825v22.6587h-23.56505v-22.6587z" data-paper-data="{&quot;index&quot;:null}" fill="#e6fa34"/><path d="M128.18079,104.03332v22.6587h-23.56505v-22.6587z" data-paper-data="{&quot;index&quot;:null}" fill="#8735ff"/><path d="M153.18079,55.44322v22.6587h-23.56505v-22.6587z" data-paper-data="{&quot;index&quot;:null}" fill="#e6fa34"/><path d="M153.18079,79.73825v22.6587h-23.56505v-22.6587z" data-paper-data="{&quot;index&quot;:null}" fill="#ff0000"/><path d="M153.18079,104.03332v22.6587h-23.56505v-22.6587z" data-paper-data="{&quot;index&quot;:null}" fill="#34fa55"/><path d="M178.18082,55.44322v22.6587h-23.56505v-22.6587z" data-paper-data="{&quot;index&quot;:null}" fill="#ff5757"/><path d="M178.18082,79.73825v22.6587h-23.56505v-22.6587z" data-paper-data="{&quot;index&quot;:null}" fill="#8735ff"/><path d="M178.18082,104.03332v22.6587h-23.56505v-22.6587z" data-paper-data="{&quot;index&quot;:null}" fill="#0090ff"/><path d="M203.18082,55.44322v22.6587h-23.56505v-22.6587z" data-paper-data="{&quot;index&quot;:null}" fill="#00ff90"/><path d="M203.18082,79.73825v22.6587h-23.56505v-22.6587z" data-paper-data="{&quot;index&quot;:null}" fill="#009cff"/><path d="M203.18082,104.03332v22.6587h-23.56505v-22.6587z" data-paper-data="{&quot;index&quot;:null}" fill="#e6fa34"/><path d="M228.18082,55.44322v22.6587h-23.56505v-22.6587z" data-paper-data="{&quot;index&quot;:null}" fill="#0090ff"/><path d="M228.18082,79.73825v22.6587h-23.56505v-22.6587z" data-paper-data="{&quot;index&quot;:null}" fill="#ff0000"/><path d="M228.18082,104.03332v22.6587h-23.56505v-22.6587z" data-paper-data="{&quot;index&quot;:null}" fill="#00ff90"/><path d="M154.61574,126.692v-22.6587h23.56506v22.6587z" fill="#fff800"/><path d="M154.61574,102.39697v-22.6587h23.56506v22.6587z" fill="#00ff21"/><path d="M154.61574,78.10192v-22.6587h23.56506v22.6587z" fill="#00ffff"/><path d="M179.61574,126.692v-22.6587h23.56506v22.6587z" fill="#57b6ff"/><path d="M179.61574,102.39697v-22.6587h23.56506v22.6587z" fill="#0090ff"/><path d="M179.61574,78.10192v-22.6587h23.56506v22.6587z" fill="#00ff90"/><path d="M204.61574,126.692v-22.6587h23.56506v22.6587z" fill="#ff5757"/><path d="M204.61574,102.39697v-22.6587h23.56506v22.6587z" fill="#8735ff"/><path d="M204.61574,78.10192v-22.6587h23.56506v22.6587z" fill="#36ffcd"/><path d="M229.61574,126.692v-22.6587h23.56506v22.6587z" fill="#fff800"/><path d="M229.61574,102.39697v-22.6587h23.56506v22.6587z" fill="#4ffa00"/><path d="M229.61574,78.10192v-22.6587h23.56506v22.6587z" fill="#ff0000"/><path d="M254.61574,126.692v-22.6587h23.56506v22.6587z" fill="#6e89ff"/><path d="M254.61574,102.39697v-22.6587h23.56506v22.6587z" fill="#9bff6e"/><path d="M254.61574,78.10192v-22.6587h23.56506v22.6587z" fill="#009cff"/><path d="M279.61573,126.692v-22.6587h23.56505v22.6587z" fill="#f96b6b"/><path d="M279.61573,102.39697v-22.6587h23.56505v22.6587z" fill="#00fab1"/><path d="M279.61573,78.10192v-22.6587h23.56505v22.6587z" fill="#10fa00"/><path d="M304.61573,126.692v-22.6587h23.56505v22.6587z" fill="#4ffa00"/><path d="M304.61573,102.39697v-22.6587h23.56505v22.6587z" fill="#e6fa34"/><path d="M304.61573,78.10192v-22.6587h23.56505v22.6587z" fill="#8735ff"/><path d="M329.61573,126.692v-22.6587h23.56505v22.6587z" fill="#e6fa34"/><path d="M329.61573,102.39697v-22.6587h23.56505v22.6587z" fill="#ff0000"/><path d="M329.61573,78.10192v-22.6587h23.56505v22.6587z" fill="#34fa55"/><path d="M354.61576,126.692v-22.6587h23.56505v22.6587z" fill="#ff5757"/><path d="M354.61576,102.39697v-22.6587h23.56505v22.6587z" fill="#8735ff"/><path d="M354.61576,78.10192v-22.6587h23.56505v22.6587z" fill="#0090ff"/><path d="M379.61576,126.692v-22.6587h23.56505v22.6587z" fill="#00ff90"/><path d="M379.61576,102.39697v-22.6587h23.56505v22.6587z" fill="#009cff"/><path d="M379.61576,78.10192v-22.6587h23.56505v22.6587z" fill="#e6fa34"/><path d="M404.61576,126.692v-22.6587h23.56505v22.6587z" fill="#0090ff"/><path d="M404.61576,102.39697v-22.6587h23.56505v22.6587z" fill="#ff0000"/><path d="M404.61576,78.10192v-22.6587h23.56505v22.6587z" fill="#00ff90"/><path d="M253.12731,128.95512v22.6587h-23.56506v-22.6587z" data-paper-data="{&quot;index&quot;:null}" fill="#fff800"/><path d="M253.12731,153.25015v22.6587h-23.56506v-22.6587z" data-paper-data="{&quot;index&quot;:null}" fill="#00ff21"/><path d="M253.12731,177.5452v22.6587h-23.56506v-22.6587z" data-paper-data="{&quot;index&quot;:null}" fill="#00ffff"/><path d="M278.12731,128.95512v22.6587h-23.56506v-22.6587z" data-paper-data="{&quot;index&quot;:null}" fill="#57b6ff"/><path d="M278.12731,153.25015v22.6587h-23.56506v-22.6587z" data-paper-data="{&quot;index&quot;:null}" fill="#0090ff"/><path d="M278.12731,177.5452v22.6587h-23.56506v-22.6587z" data-paper-data="{&quot;index&quot;:null}" fill="#00ff90"/><path d="M303.12731,128.95512v22.6587h-23.56506v-22.6587z" data-paper-data="{&quot;index&quot;:null}" fill="#ff5757"/><path d="M303.12731,153.25015v22.6587h-23.56506v-22.6587z" data-paper-data="{&quot;index&quot;:null}" fill="#8735ff"/><path d="M303.12731,177.5452v22.6587h-23.56506v-22.6587z" data-paper-data="{&quot;index&quot;:null}" fill="#36ffcd"/><path d="M328.12731,128.95512v22.6587h-23.56506v-22.6587z" data-paper-data="{&quot;index&quot;:null}" fill="#fff800"/><path d="M328.12731,153.25015v22.6587h-23.56506v-22.6587z" data-paper-data="{&quot;index&quot;:null}" fill="#4ffa00"/><path d="M328.12731,177.5452v22.6587h-23.56506v-22.6587z" data-paper-data="{&quot;index&quot;:null}" fill="#ff0000"/><path d="M353.12732,128.95512v22.6587h-23.56506v-22.6587z" data-paper-data="{&quot;index&quot;:null}" fill="#6e89ff"/><path d="M353.12732,153.25015v22.6587h-23.56506v-22.6587z" data-paper-data="{&quot;index&quot;:null}" fill="#9bff6e"/><path d="M353.12732,177.5452v22.6587h-23.56506v-22.6587z" data-paper-data="{&quot;index&quot;:null}" fill="#009cff"/><path d="M378.1273,128.95512v22.6587h-23.56505v-22.6587z" data-paper-data="{&quot;index&quot;:null}" fill="#f96b6b"/><path d="M378.1273,153.25015v22.6587h-23.56505v-22.6587z" data-paper-data="{&quot;index&quot;:null}" fill="#00fab1"/><path d="M378.1273,177.5452v22.6587h-23.56505v-22.6587z" data-paper-data="{&quot;index&quot;:null}" fill="#10fa00"/><path d="M403.1273,128.95512v22.6587h-23.56505v-22.6587z" data-paper-data="{&quot;index&quot;:null}" fill="#4ffa00"/><path d="M403.1273,153.25015v22.6587h-23.56505v-22.6587z" data-paper-data="{&quot;index&quot;:null}" fill="#e6fa34"/><path d="M403.1273,177.5452v22.6587h-23.56505v-22.6587z" data-paper-data="{&quot;index&quot;:null}" fill="#8735ff"/><path d="M428.1273,128.95512v22.6587h-23.56505v-22.6587z" data-paper-data="{&quot;index&quot;:null}" fill="#e6fa34"/><path d="M428.1273,153.25015v22.6587h-23.56505v-22.6587z" data-paper-data="{&quot;index&quot;:null}" fill="#ff0000"/><path d="M428.1273,177.5452v22.6587h-23.56505v-22.6587z" data-paper-data="{&quot;index&quot;:null}" fill="#34fa55"/><path d="M453.12732,128.95512v22.6587h-23.56505v-22.6587z" data-paper-data="{&quot;index&quot;:null}" fill="#ff5757"/><path d="M453.12732,153.25015v22.6587h-23.56505v-22.6587z" data-paper-data="{&quot;index&quot;:null}" fill="#8735ff"/><path d="M453.12732,177.5452v22.6587h-23.56505v-22.6587z" data-paper-data="{&quot;index&quot;:null}" fill="#0090ff"/><path d="M478.12732,128.95512v22.6587h-23.56505v-22.6587z" data-paper-data="{&quot;index&quot;:null}" fill="#00ff90"/><path d="M478.12732,153.25015v22.6587h-23.56505v-22.6587z" data-paper-data="{&quot;index&quot;:null}" fill="#009cff"/><path d="M478.12732,177.5452v22.6587h-23.56505v-22.6587z" data-paper-data="{&quot;index&quot;:null}" fill="#e6fa34"/><path d="M503.12732,128.95512v22.6587h-23.56505v-22.6587z" data-paper-data="{&quot;index&quot;:null}" fill="#0090ff"/><path d="M503.12732,153.25015v22.6587h-23.56505v-22.6587z" data-paper-data="{&quot;index&quot;:null}" fill="#ff0000"/><path d="M503.12732,177.5452v22.6587h-23.56505v-22.6587z" data-paper-data="{&quot;index&quot;:null}" fill="#00ff90"/><path d="M3.12731,128.95512v22.6587h-23.56506v-22.6587z" data-paper-data="{&quot;index&quot;:null}" fill="#57b6ff"/><path d="M3.12731,153.25015v22.6587h-23.56506v-22.6587z" data-paper-data="{&quot;index&quot;:null}" fill="#0090ff"/><path d="M3.12731,177.5452v22.6587h-23.56506v-22.6587z" data-paper-data="{&quot;index&quot;:null}" fill="#00ff90"/><path d="M28.12731,128.95512v22.6587h-23.56506v-22.6587z" data-paper-data="{&quot;index&quot;:null}" fill="#ff5757"/><path d="M28.12731,153.25015v22.6587h-23.56506v-22.6587z" data-paper-data="{&quot;index&quot;:null}" fill="#8735ff"/><path d="M28.12731,177.5452v22.6587h-23.56506v-22.6587z" data-paper-data="{&quot;index&quot;:null}" fill="#36ffcd"/><path d="M53.12731,128.95512v22.6587h-23.56506v-22.6587z" data-paper-data="{&quot;index&quot;:null}" fill="#fff800"/><path d="M53.12731,153.25015v22.6587h-23.56506v-22.6587z" data-paper-data="{&quot;index&quot;:null}" fill="#4ffa00"/><path d="M53.12731,177.5452v22.6587h-23.56506v-22.6587z" data-paper-data="{&quot;index&quot;:null}" fill="#ff0000"/><path d="M78.12733,128.95512v22.6587h-23.56506v-22.6587z" data-paper-data="{&quot;index&quot;:null}" fill="#6e89ff"/><path d="M78.12733,153.25015v22.6587h-23.56506v-22.6587z" data-paper-data="{&quot;index&quot;:null}" fill="#9bff6e"/><path d="M78.12733,177.5452v22.6587h-23.56506v-22.6587z" data-paper-data="{&quot;index&quot;:null}" fill="#009cff"/><path d="M103.12731,128.95512v22.6587h-23.56505v-22.6587z" data-paper-data="{&quot;index&quot;:null}" fill="#f96b6b"/><path d="M103.12731,153.25015v22.6587h-23.56505v-22.6587z" data-paper-data="{&quot;index&quot;:null}" fill="#00fab1"/><path d="M103.12731,177.5452v22.6587h-23.56505v-22.6587z" data-paper-data="{&quot;index&quot;:null}" fill="#10fa00"/><path d="M128.12731,128.95512v22.6587h-23.56505v-22.6587z" data-paper-data="{&quot;index&quot;:null}" fill="#4ffa00"/><path d="M128.12731,153.25015v22.6587h-23.56505v-22.6587z" data-paper-data="{&quot;index&quot;:null}" fill="#e6fa34"/><path d="M128.12731,177.5452v22.6587h-23.56505v-22.6587z" data-paper-data="{&quot;index&quot;:null}" fill="#8735ff"/><path d="M153.12731,128.95512v22.6587h-23.56505v-22.6587z" data-paper-data="{&quot;index&quot;:null}" fill="#e6fa34"/><path d="M153.12731,153.25015v22.6587h-23.56505v-22.6587z" data-paper-data="{&quot;index&quot;:null}" fill="#ff0000"/><path d="M153.12731,177.5452v22.6587h-23.56505v-22.6587z" data-paper-data="{&quot;index&quot;:null}" fill="#34fa55"/><path d="M178.12733,128.95512v22.6587h-23.56505v-22.6587z" data-paper-data="{&quot;index&quot;:null}" fill="#ff5757"/><path d="M178.12733,153.25015v22.6587h-23.56505v-22.6587z" data-paper-data="{&quot;index&quot;:null}" fill="#8735ff"/><path d="M178.12733,177.5452v22.6587h-23.56505v-22.6587z" data-paper-data="{&quot;index&quot;:null}" fill="#0090ff"/><path d="M203.12733,128.95512v22.6587h-23.56505v-22.6587z" data-paper-data="{&quot;index&quot;:null}" fill="#00ff90"/><path d="M203.12733,153.25015v22.6587h-23.56505v-22.6587z" data-paper-data="{&quot;index&quot;:null}" fill="#009cff"/><path d="M203.12733,177.5452v22.6587h-23.56505v-22.6587z" data-paper-data="{&quot;index&quot;:null}" fill="#e6fa34"/><path d="M228.12733,128.95512v22.6587h-23.56505v-22.6587z" data-paper-data="{&quot;index&quot;:null}" fill="#0090ff"/><path d="M228.12733,153.25015v22.6587h-23.56505v-22.6587z" data-paper-data="{&quot;index&quot;:null}" fill="#ff0000"/><path d="M228.12733,177.5452v22.6587h-23.56505v-22.6587z" data-paper-data="{&quot;index&quot;:null}" fill="#00ff90"/><path d="M154.56225,200.20388v-22.6587h23.56506v22.6587z" fill="#fff800"/><path d="M154.56225,175.90883v-22.6587h23.56506v22.6587z" fill="#00ff21"/><path d="M154.56225,151.61378v-22.6587h23.56506v22.6587z" fill="#00ffff"/><path d="M179.56225,200.20388v-22.6587h23.56506v22.6587z" fill="#57b6ff"/><path d="M179.56225,175.90883v-22.6587h23.56506v22.6587z" fill="#0090ff"/><path d="M179.56225,151.61378v-22.6587h23.56506v22.6587z" fill="#00ff90"/><path d="M204.56225,200.20388v-22.6587h23.56506v22.6587z" fill="#ff5757"/><path d="M204.56225,175.90883v-22.6587h23.56506v22.6587z" fill="#8735ff"/><path d="M204.56225,151.61378v-22.6587h23.56506v22.6587z" fill="#36ffcd"/><path d="M229.56225,200.20388v-22.6587h23.56506v22.6587z" fill="#fff800"/><path d="M229.56225,175.90883v-22.6587h23.56506v22.6587z" fill="#4ffa00"/><path d="M229.56225,151.61378v-22.6587h23.56506v22.6587z" fill="#ff0000"/><path d="M254.56225,200.20388v-22.6587h23.56506v22.6587z" fill="#6e89ff"/><path d="M254.56225,175.90883v-22.6587h23.56506v22.6587z" fill="#9bff6e"/><path d="M254.56225,151.61378v-22.6587h23.56506v22.6587z" fill="#009cff"/><path d="M279.56225,200.20388v-22.6587h23.56505v22.6587z" fill="#f96b6b"/><path d="M279.56225,175.90883v-22.6587h23.56505v22.6587z" fill="#00fab1"/><path d="M279.56225,151.61378v-22.6587h23.56505v22.6587z" fill="#10fa00"/><path d="M304.56225,200.20388v-22.6587h23.56505v22.6587z" fill="#4ffa00"/><path d="M304.56225,175.90883v-22.6587h23.56505v22.6587z" fill="#e6fa34"/><path d="M304.56225,151.61378v-22.6587h23.56505v22.6587z" fill="#8735ff"/><path d="M329.56225,200.20388v-22.6587h23.56505v22.6587z" fill="#e6fa34"/><path d="M329.56225,175.90883v-22.6587h23.56505v22.6587z" fill="#ff0000"/><path d="M329.56225,151.61378v-22.6587h23.56505v22.6587z" fill="#34fa55"/><path d="M354.56227,200.20388v-22.6587h23.56505v22.6587z" fill="#ff5757"/><path d="M354.56227,175.90883v-22.6587h23.56505v22.6587z" fill="#8735ff"/><path d="M354.56227,151.61378v-22.6587h23.56505v22.6587z" fill="#0090ff"/><path d="M379.56227,200.20388v-22.6587h23.56505v22.6587z" fill="#00ff90"/><path d="M379.56227,175.90883v-22.6587h23.56505v22.6587z" fill="#009cff"/><path d="M379.56227,151.61378v-22.6587h23.56505v22.6587z" fill="#e6fa34"/><path d="M404.56227,200.20388v-22.6587h23.56505v22.6587z" fill="#0090ff"/><path d="M404.56227,175.90883v-22.6587h23.56505v22.6587z" fill="#ff0000"/><path d="M404.56227,151.61378v-22.6587h23.56505v22.6587z" fill="#00ff90"/><path d="M-22.27623,129.33818v22.6587h-23.56506v-22.6587z" data-paper-data="{&quot;index&quot;:null}" fill="#fff800"/><path d="M-22.27623,153.63321v22.6587h-23.56506v-22.6587z" data-paper-data="{&quot;index&quot;:null}" fill="#00ff21"/><path d="M-22.27623,177.92826v22.6587h-23.56506v-22.6587z" data-paper-data="{&quot;index&quot;:null}" fill="#00ffff"/><path d="M-21.369,275.5387v22.6587h-23.56506v-22.6587z" data-paper-data="{&quot;index&quot;:null}" fill="#fff800"/><path d="M-21.369,299.83375v22.6587h-23.56506v-22.6587z" data-paper-data="{&quot;index&quot;:null}" fill="#00ff21"/><path d="M-21.369,324.1288v22.6587h-23.56506v-22.6587z" data-paper-data="{&quot;index&quot;:null}" fill="#00ffff"/><path d="M253.21636,297.71296v22.6587h-23.56506v-22.6587z" data-paper-data="{&quot;index&quot;:null}" fill="#fff800"/><path d="M253.21636,322.00799v22.6587h-23.56506v-22.6587z" data-paper-data="{&quot;index&quot;:null}" fill="#00ff21"/><path d="M253.21636,346.30302v22.6587h-23.56506v-22.6587z" data-paper-data="{&quot;index&quot;:null}" fill="#00ffff"/><path d="M278.21636,297.71296v22.6587h-23.56506v-22.6587z" data-paper-data="{&quot;index&quot;:null}" fill="#57b6ff"/><path d="M278.21636,322.00799v22.6587h-23.56506v-22.6587z" data-paper-data="{&quot;index&quot;:null}" fill="#0090ff"/><path d="M278.21636,346.30302v22.6587h-23.56506v-22.6587z" data-paper-data="{&quot;index&quot;:null}" fill="#00ff90"/><path d="M303.21636,297.71296v22.6587h-23.56506v-22.6587z" data-paper-data="{&quot;index&quot;:null}" fill="#ff5757"/><path d="M303.21636,322.00799v22.6587h-23.56506v-22.6587z" data-paper-data="{&quot;index&quot;:null}" fill="#8735ff"/><path d="M303.21636,346.30302v22.6587h-23.56506v-22.6587z" data-paper-data="{&quot;index&quot;:null}" fill="#36ffcd"/><path d="M328.21636,297.71296v22.6587h-23.56506v-22.6587z" data-paper-data="{&quot;index&quot;:null}" fill="#fff800"/><path d="M328.21636,322.00799v22.6587h-23.56506v-22.6587z" data-paper-data="{&quot;index&quot;:null}" fill="#4ffa00"/><path d="M328.21636,346.30302v22.6587h-23.56506v-22.6587z" data-paper-data="{&quot;index&quot;:null}" fill="#ff0000"/><path d="M353.21637,297.71296v22.6587h-23.56506v-22.6587z" data-paper-data="{&quot;index&quot;:null}" fill="#6e89ff"/><path d="M353.21637,322.00799v22.6587h-23.56506v-22.6587z" data-paper-data="{&quot;index&quot;:null}" fill="#9bff6e"/><path d="M353.21637,346.30302v22.6587h-23.56506v-22.6587z" data-paper-data="{&quot;index&quot;:null}" fill="#009cff"/><path d="M378.21635,297.71296v22.6587h-23.56505v-22.6587z" data-paper-data="{&quot;index&quot;:null}" fill="#f96b6b"/><path d="M378.21635,322.00799v22.6587h-23.56505v-22.6587z" data-paper-data="{&quot;index&quot;:null}" fill="#00fab1"/><path d="M378.21635,346.30302v22.6587h-23.56505v-22.6587z" data-paper-data="{&quot;index&quot;:null}" fill="#10fa00"/><path d="M403.21635,297.71296v22.6587h-23.56505v-22.6587z" data-paper-data="{&quot;index&quot;:null}" fill="#4ffa00"/><path d="M403.21635,322.00799v22.6587h-23.56505v-22.6587z" data-paper-data="{&quot;index&quot;:null}" fill="#e6fa34"/><path d="M403.21635,346.30302v22.6587h-23.56505v-22.6587z" data-paper-data="{&quot;index&quot;:null}" fill="#8735ff"/><path d="M428.21635,297.71296v22.6587h-23.56505v-22.6587z" data-paper-data="{&quot;index&quot;:null}" fill="#e6fa34"/><path d="M428.21635,322.00799v22.6587h-23.56505v-22.6587z" data-paper-data="{&quot;index&quot;:null}" fill="#ff0000"/><path d="M428.21635,346.30302v22.6587h-23.56505v-22.6587z" data-paper-data="{&quot;index&quot;:null}" fill="#34fa55"/><path d="M453.21637,297.71296v22.6587h-23.56505v-22.6587z" data-paper-data="{&quot;index&quot;:null}" fill="#ff5757"/><path d="M453.21637,322.00799v22.6587h-23.56505v-22.6587z" data-paper-data="{&quot;index&quot;:null}" fill="#8735ff"/><path d="M453.21637,346.30302v22.6587h-23.56505v-22.6587z" data-paper-data="{&quot;index&quot;:null}" fill="#0090ff"/><path d="M478.21637,297.71296v22.6587h-23.56505v-22.6587z" data-paper-data="{&quot;index&quot;:null}" fill="#00ff90"/><path d="M478.21637,322.00799v22.6587h-23.56505v-22.6587z" data-paper-data="{&quot;index&quot;:null}" fill="#009cff"/><path d="M478.21637,346.30302v22.6587h-23.56505v-22.6587z" data-paper-data="{&quot;index&quot;:null}" fill="#e6fa34"/><path d="M503.21637,297.71296v22.6587h-23.56505v-22.6587z" data-paper-data="{&quot;index&quot;:null}" fill="#0090ff"/><path d="M503.21637,322.00799v22.6587h-23.56505v-22.6587z" data-paper-data="{&quot;index&quot;:null}" fill="#ff0000"/><path d="M503.21637,346.30302v22.6587h-23.56505v-22.6587z" data-paper-data="{&quot;index&quot;:null}" fill="#00ff90"/><path d="M-21.78364,297.71296v22.6587h-23.56506v-22.6587z" data-paper-data="{&quot;index&quot;:null}" fill="#fff800"/><path d="M-21.78364,322.00799v22.6587h-23.56506v-22.6587z" data-paper-data="{&quot;index&quot;:null}" fill="#00ff21"/><path d="M-21.78364,346.30307v22.6587h-23.56506v-22.6587z" data-paper-data="{&quot;index&quot;:null}" fill="#00ffff"/><path d="M3.21636,297.71296v22.6587h-23.56506v-22.6587z" data-paper-data="{&quot;index&quot;:null}" fill="#57b6ff"/><path d="M3.21636,322.00799v22.6587h-23.56506v-22.6587z" data-paper-data="{&quot;index&quot;:null}" fill="#0090ff"/><path d="M3.21636,346.30307v22.6587h-23.56506v-22.6587z" data-paper-data="{&quot;index&quot;:null}" fill="#00ff90"/><path d="M28.21636,297.71296v22.6587h-23.56506v-22.6587z" data-paper-data="{&quot;index&quot;:null}" fill="#ff5757"/><path d="M28.21636,322.00799v22.6587h-23.56506v-22.6587z" data-paper-data="{&quot;index&quot;:null}" fill="#8735ff"/><path d="M28.21636,346.30307v22.6587h-23.56506v-22.6587z" data-paper-data="{&quot;index&quot;:null}" fill="#36ffcd"/><path d="M53.21636,297.71296v22.6587h-23.56506v-22.6587z" data-paper-data="{&quot;index&quot;:null}" fill="#fff800"/><path d="M53.21636,322.00799v22.6587h-23.56506v-22.6587z" data-paper-data="{&quot;index&quot;:null}" fill="#4ffa00"/><path d="M53.21636,346.30307v22.6587h-23.56506v-22.6587z" data-paper-data="{&quot;index&quot;:null}" fill="#ff0000"/><path d="M78.21638,297.71296v22.6587h-23.56506v-22.6587z" data-paper-data="{&quot;index&quot;:null}" fill="#6e89ff"/><path d="M78.21638,322.00799v22.6587h-23.56506v-22.6587z" data-paper-data="{&quot;index&quot;:null}" fill="#9bff6e"/><path d="M78.21638,346.30307v22.6587h-23.56506v-22.6587z" data-paper-data="{&quot;index&quot;:null}" fill="#009cff"/><path d="M103.21636,297.71296v22.6587h-23.56505v-22.6587z" data-paper-data="{&quot;index&quot;:null}" fill="#f96b6b"/><path d="M103.21636,322.00799v22.6587h-23.56505v-22.6587z" data-paper-data="{&quot;index&quot;:null}" fill="#00fab1"/><path d="M103.21636,346.30307v22.6587h-23.56505v-22.6587z" data-paper-data="{&quot;index&quot;:null}" fill="#10fa00"/><path d="M128.21636,297.71296v22.6587h-23.56505v-22.6587z" data-paper-data="{&quot;index&quot;:null}" fill="#4ffa00"/><path d="M128.21636,322.00799v22.6587h-23.56505v-22.6587z" data-paper-data="{&quot;index&quot;:null}" fill="#e6fa34"/><path d="M128.21636,346.30307v22.6587h-23.56505v-22.6587z" data-paper-data="{&quot;index&quot;:null}" fill="#8735ff"/><path d="M153.21636,297.71296v22.6587h-23.56505v-22.6587z" data-paper-data="{&quot;index&quot;:null}" fill="#e6fa34"/><path d="M153.21636,322.00799v22.6587h-23.56505v-22.6587z" data-paper-data="{&quot;index&quot;:null}" fill="#ff0000"/><path d="M153.21636,346.30307v22.6587h-23.56505v-22.6587z" data-paper-data="{&quot;index&quot;:null}" fill="#34fa55"/><path d="M178.21638,297.71296v22.6587h-23.56505v-22.6587z" data-paper-data="{&quot;index&quot;:null}" fill="#ff5757"/><path d="M178.21638,322.00799v22.6587h-23.56505v-22.6587z" data-paper-data="{&quot;index&quot;:null}" fill="#8735ff"/><path d="M178.21638,346.30307v22.6587h-23.56505v-22.6587z" data-paper-data="{&quot;index&quot;:null}" fill="#0090ff"/><path d="M203.21638,297.71296v22.6587h-23.56505v-22.6587z" data-paper-data="{&quot;index&quot;:null}" fill="#00ff90"/><path d="M203.21638,322.00799v22.6587h-23.56505v-22.6587z" data-paper-data="{&quot;index&quot;:null}" fill="#009cff"/><path d="M203.21638,346.30307v22.6587h-23.56505v-22.6587z" data-paper-data="{&quot;index&quot;:null}" fill="#e6fa34"/><path d="M228.21638,297.71296v22.6587h-23.56505v-22.6587z" data-paper-data="{&quot;index&quot;:null}" fill="#0090ff"/><path d="M228.21638,322.00799v22.6587h-23.56505v-22.6587z" data-paper-data="{&quot;index&quot;:null}" fill="#ff0000"/><path d="M228.21638,346.30307v22.6587h-23.56505v-22.6587z" data-paper-data="{&quot;index&quot;:null}" fill="#00ff90"/><path d="M154.6513,368.96176v-22.6587h23.56506v22.6587z" fill="#fff800"/><path d="M154.6513,344.66673v-22.6587h23.56506v22.6587z" fill="#00ff21"/><path d="M154.6513,320.37164v-22.6587h23.56506v22.6587z" fill="#00ffff"/><path d="M179.6513,368.96176v-22.6587h23.56506v22.6587z" fill="#57b6ff"/><path d="M179.6513,344.66673v-22.6587h23.56506v22.6587z" fill="#0090ff"/><path d="M179.6513,320.37164v-22.6587h23.56506v22.6587z" fill="#00ff90"/><path d="M204.6513,368.96176v-22.6587h23.56506v22.6587z" fill="#ff5757"/><path d="M204.6513,344.66673v-22.6587h23.56506v22.6587z" fill="#8735ff"/><path d="M204.6513,320.37164v-22.6587h23.56506v22.6587z" fill="#36ffcd"/><path d="M229.6513,368.96176v-22.6587h23.56506v22.6587z" fill="#fff800"/><path d="M229.6513,344.66673v-22.6587h23.56506v22.6587z" fill="#4ffa00"/><path d="M229.6513,320.37164v-22.6587h23.56506v22.6587z" fill="#ff0000"/><path d="M254.6513,368.96176v-22.6587h23.56506v22.6587z" fill="#6e89ff"/><path d="M254.6513,344.66673v-22.6587h23.56506v22.6587z" fill="#9bff6e"/><path d="M254.6513,320.37164v-22.6587h23.56506v22.6587z" fill="#009cff"/><path d="M279.6513,368.96176v-22.6587h23.56505v22.6587z" fill="#f96b6b"/><path d="M279.6513,344.66673v-22.6587h23.56505v22.6587z" fill="#00fab1"/><path d="M279.6513,320.37164v-22.6587h23.56505v22.6587z" fill="#10fa00"/><path d="M304.6513,368.96176v-22.6587h23.56505v22.6587z" fill="#4ffa00"/><path d="M304.6513,344.66673v-22.6587h23.56505v22.6587z" fill="#e6fa34"/><path d="M304.6513,320.37164v-22.6587h23.56505v22.6587z" fill="#8735ff"/><path d="M329.6513,368.96176v-22.6587h23.56505v22.6587z" fill="#e6fa34"/><path d="M329.6513,344.66673v-22.6587h23.56505v22.6587z" fill="#ff0000"/><path d="M329.6513,320.37164v-22.6587h23.56505v22.6587z" fill="#34fa55"/><path d="M354.65132,368.96176v-22.6587h23.56505v22.6587z" fill="#ff5757"/><path d="M354.65132,344.66673v-22.6587h23.56505v22.6587z" fill="#8735ff"/><path d="M354.65132,320.37164v-22.6587h23.56505v22.6587z" fill="#0090ff"/><path d="M379.65132,368.96176v-22.6587h23.56505v22.6587z" fill="#00ff90"/><path d="M379.65132,344.66673v-22.6587h23.56505v22.6587z" fill="#009cff"/><path d="M379.65132,320.37164v-22.6587h23.56505v22.6587z" fill="#e6fa34"/><path d="M404.65132,368.96176v-22.6587h23.56505v22.6587z" fill="#0090ff"/><path d="M404.65132,344.66673v-22.6587h23.56505v22.6587z" fill="#ff0000"/><path d="M404.65132,320.37164v-22.6587h23.56505v22.6587z" fill="#00ff90"/><path d="M253.16287,371.22485v22.6587h-23.56506v-22.6587z" data-paper-data="{&quot;index&quot;:null}" fill="#fff800"/><path d="M253.16287,395.5199v22.6587h-23.56506v-22.6587z" data-paper-data="{&quot;index&quot;:null}" fill="#00ff21"/><path d="M253.16287,419.81495v22.6587h-23.56506v-22.6587z" data-paper-data="{&quot;index&quot;:null}" fill="#00ffff"/><path d="M278.16287,371.22485v22.6587h-23.56506v-22.6587z" data-paper-data="{&quot;index&quot;:null}" fill="#57b6ff"/><path d="M278.16287,395.5199v22.6587h-23.56506v-22.6587z" data-paper-data="{&quot;index&quot;:null}" fill="#0090ff"/><path d="M278.16287,419.81495v22.6587h-23.56506v-22.6587z" data-paper-data="{&quot;index&quot;:null}" fill="#00ff90"/><path d="M303.16287,371.22485v22.6587h-23.56506v-22.6587z" data-paper-data="{&quot;index&quot;:null}" fill="#ff5757"/><path d="M303.16287,395.5199v22.6587h-23.56506v-22.6587z" data-paper-data="{&quot;index&quot;:null}" fill="#8735ff"/><path d="M303.16287,419.81495v22.6587h-23.56506v-22.6587z" data-paper-data="{&quot;index&quot;:null}" fill="#36ffcd"/><path d="M328.16287,371.22485v22.6587h-23.56506v-22.6587z" data-paper-data="{&quot;index&quot;:null}" fill="#fff800"/><path d="M328.16287,395.5199v22.6587h-23.56506v-22.6587z" data-paper-data="{&quot;index&quot;:null}" fill="#4ffa00"/><path d="M328.16287,419.81495v22.6587h-23.56506v-22.6587z" data-paper-data="{&quot;index&quot;:null}" fill="#ff0000"/><path d="M353.16288,371.22485v22.6587h-23.56506v-22.6587z" data-paper-data="{&quot;index&quot;:null}" fill="#6e89ff"/><path d="M353.16288,395.5199v22.6587h-23.56506v-22.6587z" data-paper-data="{&quot;index&quot;:null}" fill="#9bff6e"/><path d="M353.16288,419.81495v22.6587h-23.56506v-22.6587z" data-paper-data="{&quot;index&quot;:null}" fill="#009cff"/><path d="M378.16286,371.22485v22.6587h-23.56505v-22.6587z" data-paper-data="{&quot;index&quot;:null}" fill="#f96b6b"/><path d="M378.16286,395.5199v22.6587h-23.56505v-22.6587z" data-paper-data="{&quot;index&quot;:null}" fill="#00fab1"/><path d="M378.16286,419.81495v22.6587h-23.56505v-22.6587z" data-paper-data="{&quot;index&quot;:null}" fill="#10fa00"/><path d="M403.16286,371.22485v22.6587h-23.56505v-22.6587z" data-paper-data="{&quot;index&quot;:null}" fill="#4ffa00"/><path d="M403.16286,395.5199v22.6587h-23.56505v-22.6587z" data-paper-data="{&quot;index&quot;:null}" fill="#e6fa34"/><path d="M403.16286,419.81495v22.6587h-23.56505v-22.6587z" data-paper-data="{&quot;index&quot;:null}" fill="#8735ff"/><path d="M428.16286,371.22485v22.6587h-23.56505v-22.6587z" data-paper-data="{&quot;index&quot;:null}" fill="#e6fa34"/><path d="M428.16286,395.5199v22.6587h-23.56505v-22.6587z" data-paper-data="{&quot;index&quot;:null}" fill="#ff0000"/><path d="M428.16286,419.81495v22.6587h-23.56505v-22.6587z" data-paper-data="{&quot;index&quot;:null}" fill="#34fa55"/><path d="M453.16288,371.22485v22.6587h-23.56505v-22.6587z" data-paper-data="{&quot;index&quot;:null}" fill="#ff5757"/><path d="M453.16288,395.5199v22.6587h-23.56505v-22.6587z" data-paper-data="{&quot;index&quot;:null}" fill="#8735ff"/><path d="M453.16288,419.81495v22.6587h-23.56505v-22.6587z" data-paper-data="{&quot;index&quot;:null}" fill="#0090ff"/><path d="M478.16288,371.22485v22.6587h-23.56505v-22.6587z" data-paper-data="{&quot;index&quot;:null}" fill="#00ff90"/><path d="M478.16288,395.5199v22.6587h-23.56505v-22.6587z" data-paper-data="{&quot;index&quot;:null}" fill="#009cff"/><path d="M478.16288,419.81495v22.6587h-23.56505v-22.6587z" data-paper-data="{&quot;index&quot;:null}" fill="#e6fa34"/><path d="M503.16288,371.22485v22.6587h-23.56505v-22.6587z" data-paper-data="{&quot;index&quot;:null}" fill="#0090ff"/><path d="M503.16288,395.5199v22.6587h-23.56505v-22.6587z" data-paper-data="{&quot;index&quot;:null}" fill="#ff0000"/><path d="M503.16288,419.81495v22.6587h-23.56505v-22.6587z" data-paper-data="{&quot;index&quot;:null}" fill="#00ff90"/><path d="M3.16287,371.22485v22.6587h-23.56506v-22.6587z" data-paper-data="{&quot;index&quot;:null}" fill="#57b6ff"/><path d="M3.16287,395.5199v22.6587h-23.56506v-22.6587z" data-paper-data="{&quot;index&quot;:null}" fill="#0090ff"/><path d="M3.16287,419.81496v22.6587h-23.56506v-22.6587z" data-paper-data="{&quot;index&quot;:null}" fill="#00ff90"/><path d="M28.16287,371.22485v22.6587h-23.56506v-22.6587z" data-paper-data="{&quot;index&quot;:null}" fill="#ff5757"/><path d="M28.16287,395.5199v22.6587h-23.56506v-22.6587z" data-paper-data="{&quot;index&quot;:null}" fill="#8735ff"/><path d="M28.16287,419.81496v22.6587h-23.56506v-22.6587z" data-paper-data="{&quot;index&quot;:null}" fill="#36ffcd"/><path d="M53.16287,371.22485v22.6587h-23.56506v-22.6587z" data-paper-data="{&quot;index&quot;:null}" fill="#fff800"/><path d="M53.16287,395.5199v22.6587h-23.56506v-22.6587z" data-paper-data="{&quot;index&quot;:null}" fill="#4ffa00"/><path d="M53.16287,419.81496v22.6587h-23.56506v-22.6587z" data-paper-data="{&quot;index&quot;:null}" fill="#ff0000"/><path d="M78.16289,371.22485v22.6587h-23.56506v-22.6587z" data-paper-data="{&quot;index&quot;:null}" fill="#6e89ff"/><path d="M78.16289,395.5199v22.6587h-23.56506v-22.6587z" data-paper-data="{&quot;index&quot;:null}" fill="#9bff6e"/><path d="M78.16289,419.81496v22.6587h-23.56506v-22.6587z" data-paper-data="{&quot;index&quot;:null}" fill="#009cff"/><path d="M103.16287,371.22485v22.6587h-23.56505v-22.6587z" data-paper-data="{&quot;index&quot;:null}" fill="#f96b6b"/><path d="M103.16287,395.5199v22.6587h-23.56505v-22.6587z" data-paper-data="{&quot;index&quot;:null}" fill="#00fab1"/><path d="M103.16287,419.81496v22.6587h-23.56505v-22.6587z" data-paper-data="{&quot;index&quot;:null}" fill="#10fa00"/><path d="M128.16287,371.22485v22.6587h-23.56505v-22.6587z" data-paper-data="{&quot;index&quot;:null}" fill="#4ffa00"/><path d="M128.16287,395.5199v22.6587h-23.56505v-22.6587z" data-paper-data="{&quot;index&quot;:null}" fill="#e6fa34"/><path d="M128.16287,419.81496v22.6587h-23.56505v-22.6587z" data-paper-data="{&quot;index&quot;:null}" fill="#8735ff"/><path d="M153.16287,371.22485v22.6587h-23.56505v-22.6587z" data-paper-data="{&quot;index&quot;:null}" fill="#e6fa34"/><path d="M153.16287,395.5199v22.6587h-23.56505v-22.6587z" data-paper-data="{&quot;index&quot;:null}" fill="#ff0000"/><path d="M153.16287,419.81496v22.6587h-23.56505v-22.6587z" data-paper-data="{&quot;index&quot;:null}" fill="#34fa55"/><path d="M178.16289,371.22485v22.6587h-23.56505v-22.6587z" data-paper-data="{&quot;index&quot;:null}" fill="#ff5757"/><path d="M178.16289,395.5199v22.6587h-23.56505v-22.6587z" data-paper-data="{&quot;index&quot;:null}" fill="#8735ff"/><path d="M178.16289,419.81496v22.6587h-23.56505v-22.6587z" data-paper-data="{&quot;index&quot;:null}" fill="#0090ff"/><path d="M203.16289,371.22485v22.6587h-23.56505v-22.6587z" data-paper-data="{&quot;index&quot;:null}" fill="#00ff90"/><path d="M203.16289,395.5199v22.6587h-23.56505v-22.6587z" data-paper-data="{&quot;index&quot;:null}" fill="#009cff"/><path d="M203.16289,419.81496v22.6587h-23.56505v-22.6587z" data-paper-data="{&quot;index&quot;:null}" fill="#e6fa34"/><path d="M228.16289,371.22485v22.6587h-23.56505v-22.6587z" data-paper-data="{&quot;index&quot;:null}" fill="#0090ff"/><path d="M228.16289,395.5199v22.6587h-23.56505v-22.6587z" data-paper-data="{&quot;index&quot;:null}" fill="#ff0000"/><path d="M228.16289,419.81496v22.6587h-23.56505v-22.6587z" data-paper-data="{&quot;index&quot;:null}" fill="#00ff90"/><path d="M154.59781,442.47365v-22.6587h23.56506v22.6587z" fill="#fff800"/><path d="M154.59781,418.17862v-22.6587h23.56506v22.6587z" fill="#00ff21"/><path d="M154.59781,393.88357v-22.6587h23.56506v22.6587z" fill="#00ffff"/><path d="M179.59781,442.47365v-22.6587h23.56506v22.6587z" fill="#57b6ff"/><path d="M179.59781,418.17862v-22.6587h23.56506v22.6587z" fill="#0090ff"/><path d="M179.59781,393.88357v-22.6587h23.56506v22.6587z" fill="#00ff90"/><path d="M204.59781,442.47365v-22.6587h23.56506v22.6587z" fill="#ff5757"/><path d="M204.59781,418.17862v-22.6587h23.56506v22.6587z" fill="#8735ff"/><path d="M204.59781,393.88357v-22.6587h23.56506v22.6587z" fill="#36ffcd"/><path d="M229.59781,442.47365v-22.6587h23.56506v22.6587z" fill="#fff800"/><path d="M229.59781,418.17862v-22.6587h23.56506v22.6587z" fill="#4ffa00"/><path d="M229.59781,393.88357v-22.6587h23.56506v22.6587z" fill="#ff0000"/><path d="M254.59781,442.47365v-22.6587h23.56506v22.6587z" fill="#6e89ff"/><path d="M254.59781,418.17862v-22.6587h23.56506v22.6587z" fill="#9bff6e"/><path d="M254.59781,393.88357v-22.6587h23.56506v22.6587z" fill="#009cff"/><path d="M279.59781,442.47365v-22.6587h23.56505v22.6587z" fill="#f96b6b"/><path d="M279.59781,418.17862v-22.6587h23.56505v22.6587z" fill="#00fab1"/><path d="M279.59781,393.88357v-22.6587h23.56505v22.6587z" fill="#10fa00"/><path d="M304.59781,442.47365v-22.6587h23.56505v22.6587z" fill="#4ffa00"/><path d="M304.59781,418.17862v-22.6587h23.56505v22.6587z" fill="#e6fa34"/><path d="M304.59781,393.88357v-22.6587h23.56505v22.6587z" fill="#8735ff"/><path d="M329.59781,442.47365v-22.6587h23.56505v22.6587z" fill="#e6fa34"/><path d="M329.59781,418.17862v-22.6587h23.56505v22.6587z" fill="#ff0000"/><path d="M329.59781,393.88357v-22.6587h23.56505v22.6587z" fill="#34fa55"/><path d="M354.59783,442.47365v-22.6587h23.56505v22.6587z" fill="#ff5757"/><path d="M354.59783,418.17862v-22.6587h23.56505v22.6587z" fill="#8735ff"/><path d="M354.59783,393.88357v-22.6587h23.56505v22.6587z" fill="#0090ff"/><path d="M379.59783,442.47365v-22.6587h23.56505v22.6587z" fill="#00ff90"/><path d="M379.59783,418.17862v-22.6587h23.56505v22.6587z" fill="#009cff"/><path d="M379.59783,393.88357v-22.6587h23.56505v22.6587z" fill="#e6fa34"/><path d="M404.59783,442.47365v-22.6587h23.56505v22.6587z" fill="#0090ff"/><path d="M404.59783,418.17862v-22.6587h23.56505v22.6587z" fill="#ff0000"/><path d="M404.59783,393.88357v-22.6587h23.56505v22.6587z" fill="#00ff90"/><path d="M253.44146,151.2805v22.6587h-23.56506v-22.6587z" data-paper-data="{&quot;index&quot;:null}" fill="#fff800"/><path d="M253.44146,175.57554v22.6587h-23.56506v-22.6587z" data-paper-data="{&quot;index&quot;:null}" fill="#00ff21"/><path d="M253.44146,199.87058v22.6587h-23.56506v-22.6587z" data-paper-data="{&quot;index&quot;:null}" fill="#00ffff"/><path d="M278.44146,151.2805v22.6587h-23.56506v-22.6587z" data-paper-data="{&quot;index&quot;:null}" fill="#57b6ff"/><path d="M278.44146,175.57554v22.6587h-23.56506v-22.6587z" data-paper-data="{&quot;index&quot;:null}" fill="#0090ff"/><path d="M278.44146,199.87058v22.6587h-23.56506v-22.6587z" data-paper-data="{&quot;index&quot;:null}" fill="#00ff90"/><path d="M303.44146,151.2805v22.6587h-23.56506v-22.6587z" data-paper-data="{&quot;index&quot;:null}" fill="#ff5757"/><path d="M303.44146,175.57554v22.6587h-23.56506v-22.6587z" data-paper-data="{&quot;index&quot;:null}" fill="#8735ff"/><path d="M303.44146,199.87058v22.6587h-23.56506v-22.6587z" data-paper-data="{&quot;index&quot;:null}" fill="#36ffcd"/><path d="M328.44146,151.2805v22.6587h-23.56506v-22.6587z" data-paper-data="{&quot;index&quot;:null}" fill="#fff800"/><path d="M328.44146,175.57554v22.6587h-23.56506v-22.6587z" data-paper-data="{&quot;index&quot;:null}" fill="#4ffa00"/><path d="M328.44146,199.87058v22.6587h-23.56506v-22.6587z" data-paper-data="{&quot;index&quot;:null}" fill="#ff0000"/><path d="M353.44147,151.2805v22.6587h-23.56506v-22.6587z" data-paper-data="{&quot;index&quot;:null}" fill="#6e89ff"/><path d="M353.44147,175.57554v22.6587h-23.56506v-22.6587z" data-paper-data="{&quot;index&quot;:null}" fill="#9bff6e"/><path d="M353.44147,199.87058v22.6587h-23.56506v-22.6587z" data-paper-data="{&quot;index&quot;:null}" fill="#009cff"/><path d="M378.44145,151.2805v22.6587h-23.56505v-22.6587z" data-paper-data="{&quot;index&quot;:null}" fill="#f96b6b"/><path d="M378.44145,175.57554v22.6587h-23.56505v-22.6587z" data-paper-data="{&quot;index&quot;:null}" fill="#00fab1"/><path d="M378.44145,199.87058v22.6587h-23.56505v-22.6587z" data-paper-data="{&quot;index&quot;:null}" fill="#10fa00"/><path d="M403.44145,151.2805v22.6587h-23.56505v-22.6587z" data-paper-data="{&quot;index&quot;:null}" fill="#4ffa00"/><path d="M403.44145,175.57554v22.6587h-23.56505v-22.6587z" data-paper-data="{&quot;index&quot;:null}" fill="#e6fa34"/><path d="M403.44145,199.87058v22.6587h-23.56505v-22.6587z" data-paper-data="{&quot;index&quot;:null}" fill="#8735ff"/><path d="M428.44145,151.2805v22.6587h-23.56505v-22.6587z" data-paper-data="{&quot;index&quot;:null}" fill="#e6fa34"/><path d="M428.44145,175.57554v22.6587h-23.56505v-22.6587z" data-paper-data="{&quot;index&quot;:null}" fill="#ff0000"/><path d="M428.44145,199.87058v22.6587h-23.56505v-22.6587z" data-paper-data="{&quot;index&quot;:null}" fill="#34fa55"/><path d="M453.44147,151.2805v22.6587h-23.56505v-22.6587z" data-paper-data="{&quot;index&quot;:null}" fill="#ff5757"/><path d="M453.44147,175.57554v22.6587h-23.56505v-22.6587z" data-paper-data="{&quot;index&quot;:null}" fill="#8735ff"/><path d="M453.44147,199.87058v22.6587h-23.56505v-22.6587z" data-paper-data="{&quot;index&quot;:null}" fill="#0090ff"/><path d="M478.44147,151.2805v22.6587h-23.56505v-22.6587z" data-paper-data="{&quot;index&quot;:null}" fill="#00ff90"/><path d="M478.44147,175.57554v22.6587h-23.56505v-22.6587z" data-paper-data="{&quot;index&quot;:null}" fill="#009cff"/><path d="M478.44147,199.87058v22.6587h-23.56505v-22.6587z" data-paper-data="{&quot;index&quot;:null}" fill="#e6fa34"/><path d="M503.44147,151.2805v22.6587h-23.56505v-22.6587z" data-paper-data="{&quot;index&quot;:null}" fill="#0090ff"/><path d="M503.44147,175.57554v22.6587h-23.56505v-22.6587z" data-paper-data="{&quot;index&quot;:null}" fill="#ff0000"/><path d="M503.44147,199.87058v22.6587h-23.56505v-22.6587z" data-paper-data="{&quot;index&quot;:null}" fill="#00ff90"/><path d="M-21.55854,151.2805v22.6587h-23.56506v-22.6587z" data-paper-data="{&quot;index&quot;:null}" fill="#fff800"/><path d="M-21.55854,175.57555v22.6587h-23.56506v-22.6587z" data-paper-data="{&quot;index&quot;:null}" fill="#00ff21"/><path d="M-21.55854,199.8706v22.6587h-23.56506v-22.6587z" data-paper-data="{&quot;index&quot;:null}" fill="#00ffff"/><path d="M3.44146,151.2805v22.6587h-23.56506v-22.6587z" data-paper-data="{&quot;index&quot;:null}" fill="#57b6ff"/><path d="M3.44146,175.57555v22.6587h-23.56506v-22.6587z" data-paper-data="{&quot;index&quot;:null}" fill="#0090ff"/><path d="M3.44146,199.8706v22.6587h-23.56506v-22.6587z" data-paper-data="{&quot;index&quot;:null}" fill="#00ff90"/><path d="M28.44146,151.2805v22.6587h-23.56506v-22.6587z" data-paper-data="{&quot;index&quot;:null}" fill="#ff5757"/><path d="M28.44146,175.57555v22.6587h-23.56506v-22.6587z" data-paper-data="{&quot;index&quot;:null}" fill="#8735ff"/><path d="M28.44146,199.8706v22.6587h-23.56506v-22.6587z" data-paper-data="{&quot;index&quot;:null}" fill="#36ffcd"/><path d="M53.44146,151.2805v22.6587h-23.56506v-22.6587z" data-paper-data="{&quot;index&quot;:null}" fill="#fff800"/><path d="M53.44146,175.57555v22.6587h-23.56506v-22.6587z" data-paper-data="{&quot;index&quot;:null}" fill="#4ffa00"/><path d="M53.44146,199.8706v22.6587h-23.56506v-22.6587z" data-paper-data="{&quot;index&quot;:null}" fill="#ff0000"/><path d="M78.44148,151.2805v22.6587h-23.56506v-22.6587z" data-paper-data="{&quot;index&quot;:null}" fill="#6e89ff"/><path d="M78.44148,175.57555v22.6587h-23.56506v-22.6587z" data-paper-data="{&quot;index&quot;:null}" fill="#9bff6e"/><path d="M78.44148,199.8706v22.6587h-23.56506v-22.6587z" data-paper-data="{&quot;index&quot;:null}" fill="#009cff"/><path d="M103.44146,151.2805v22.6587h-23.56505v-22.6587z" data-paper-data="{&quot;index&quot;:null}" fill="#f96b6b"/><path d="M103.44146,175.57555v22.6587h-23.56505v-22.6587z" data-paper-data="{&quot;index&quot;:null}" fill="#00fab1"/><path d="M103.44146,199.8706v22.6587h-23.56505v-22.6587z" data-paper-data="{&quot;index&quot;:null}" fill="#10fa00"/><path d="M128.44146,151.2805v22.6587h-23.56505v-22.6587z" data-paper-data="{&quot;index&quot;:null}" fill="#4ffa00"/><path d="M128.44146,175.57555v22.6587h-23.56505v-22.6587z" data-paper-data="{&quot;index&quot;:null}" fill="#e6fa34"/><path d="M128.44146,199.8706v22.6587h-23.56505v-22.6587z" data-paper-data="{&quot;index&quot;:null}" fill="#8735ff"/><path d="M153.44146,151.2805v22.6587h-23.56505v-22.6587z" data-paper-data="{&quot;index&quot;:null}" fill="#e6fa34"/><path d="M153.44146,175.57555v22.6587h-23.56505v-22.6587z" data-paper-data="{&quot;index&quot;:null}" fill="#ff0000"/><path d="M153.44146,199.8706v22.6587h-23.56505v-22.6587z" data-paper-data="{&quot;index&quot;:null}" fill="#34fa55"/><path d="M178.44148,151.2805v22.6587h-23.56505v-22.6587z" data-paper-data="{&quot;index&quot;:null}" fill="#ff5757"/><path d="M178.44148,175.57555v22.6587h-23.56505v-22.6587z" data-paper-data="{&quot;index&quot;:null}" fill="#8735ff"/><path d="M178.44148,199.8706v22.6587h-23.56505v-22.6587z" data-paper-data="{&quot;index&quot;:null}" fill="#0090ff"/><path d="M203.44148,151.2805v22.6587h-23.56505v-22.6587z" data-paper-data="{&quot;index&quot;:null}" fill="#00ff90"/><path d="M203.44148,175.57555v22.6587h-23.56505v-22.6587z" data-paper-data="{&quot;index&quot;:null}" fill="#009cff"/><path d="M203.44148,199.8706v22.6587h-23.56505v-22.6587z" data-paper-data="{&quot;index&quot;:null}" fill="#e6fa34"/><path d="M228.44148,151.2805v22.6587h-23.56505v-22.6587z" data-paper-data="{&quot;index&quot;:null}" fill="#0090ff"/><path d="M228.44148,175.57555v22.6587h-23.56505v-22.6587z" data-paper-data="{&quot;index&quot;:null}" fill="#ff0000"/><path d="M228.44148,199.8706v22.6587h-23.56505v-22.6587z" data-paper-data="{&quot;index&quot;:null}" fill="#00ff90"/><path d="M154.8764,222.52926v-22.6587h23.56506v22.6587z" fill="#fff800"/><path d="M154.8764,198.23423v-22.6587h23.56506v22.6587z" fill="#00ff21"/><path d="M154.8764,173.93918v-22.6587h23.56506v22.6587z" fill="#00ffff"/><path d="M179.8764,222.52926v-22.6587h23.56506v22.6587z" fill="#57b6ff"/><path d="M179.8764,198.23423v-22.6587h23.56506v22.6587z" fill="#0090ff"/><path d="M179.8764,173.93918v-22.6587h23.56506v22.6587z" fill="#00ff90"/><path d="M204.8764,222.52926v-22.6587h23.56506v22.6587z" fill="#ff5757"/><path d="M204.8764,198.23423v-22.6587h23.56506v22.6587z" fill="#8735ff"/><path d="M204.8764,173.93918v-22.6587h23.56506v22.6587z" fill="#36ffcd"/><path d="M229.8764,222.52926v-22.6587h23.56506v22.6587z" fill="#fff800"/><path d="M229.8764,198.23423v-22.6587h23.56506v22.6587z" fill="#4ffa00"/><path d="M229.8764,173.93918v-22.6587h23.56506v22.6587z" fill="#ff0000"/><path d="M254.8764,222.52926v-22.6587h23.56506v22.6587z" fill="#6e89ff"/><path d="M254.8764,198.23423v-22.6587h23.56506v22.6587z" fill="#9bff6e"/><path d="M254.8764,173.93918v-22.6587h23.56506v22.6587z" fill="#009cff"/><path d="M279.8764,222.52926v-22.6587h23.56505v22.6587z" fill="#f96b6b"/><path d="M279.8764,198.23423v-22.6587h23.56505v22.6587z" fill="#00fab1"/><path d="M279.8764,173.93918v-22.6587h23.56505v22.6587z" fill="#10fa00"/><path d="M304.8764,222.52926v-22.6587h23.56505v22.6587z" fill="#4ffa00"/><path d="M304.8764,198.23423v-22.6587h23.56505v22.6587z" fill="#e6fa34"/><path d="M304.8764,173.93918v-22.6587h23.56505v22.6587z" fill="#8735ff"/><path d="M329.8764,222.52926v-22.6587h23.56505v22.6587z" fill="#e6fa34"/><path d="M329.8764,198.23423v-22.6587h23.56505v22.6587z" fill="#ff0000"/><path d="M329.8764,173.93918v-22.6587h23.56505v22.6587z" fill="#34fa55"/><path d="M354.87642,222.52926v-22.6587h23.56505v22.6587z" fill="#ff5757"/><path d="M354.87642,198.23423v-22.6587h23.56505v22.6587z" fill="#8735ff"/><path d="M354.87642,173.93918v-22.6587h23.56505v22.6587z" fill="#0090ff"/><path d="M379.87642,222.52926v-22.6587h23.56505v22.6587z" fill="#00ff90"/><path d="M379.87642,198.23423v-22.6587h23.56505v22.6587z" fill="#009cff"/><path d="M379.87642,173.93918v-22.6587h23.56505v22.6587z" fill="#e6fa34"/><path d="M404.87642,222.52926v-22.6587h23.56505v22.6587z" fill="#0090ff"/><path d="M404.87642,198.23423v-22.6587h23.56505v22.6587z" fill="#ff0000"/><path d="M404.87642,173.93918v-22.6587h23.56505v22.6587z" fill="#00ff90"/><path d="M253.38797,224.7924v22.6587h-23.56506v-22.6587z" data-paper-data="{&quot;index&quot;:null}" fill="#fff800"/><path d="M253.38797,249.08743v22.6587h-23.56506v-22.6587z" data-paper-data="{&quot;index&quot;:null}" fill="#00ff21"/><path d="M253.38797,273.38245v22.6587h-23.56506v-22.6587z" data-paper-data="{&quot;index&quot;:null}" fill="#00ffff"/><path d="M278.38797,224.7924v22.6587h-23.56506v-22.6587z" data-paper-data="{&quot;index&quot;:null}" fill="#57b6ff"/><path d="M278.38797,249.08743v22.6587h-23.56506v-22.6587z" data-paper-data="{&quot;index&quot;:null}" fill="#0090ff"/><path d="M278.38797,273.38245v22.6587h-23.56506v-22.6587z" data-paper-data="{&quot;index&quot;:null}" fill="#00ff90"/><path d="M303.38797,224.7924v22.6587h-23.56506v-22.6587z" data-paper-data="{&quot;index&quot;:null}" fill="#ff5757"/><path d="M303.38797,249.08743v22.6587h-23.56506v-22.6587z" data-paper-data="{&quot;index&quot;:null}" fill="#8735ff"/><path d="M303.38797,273.38245v22.6587h-23.56506v-22.6587z" data-paper-data="{&quot;index&quot;:null}" fill="#36ffcd"/><path d="M328.38797,224.7924v22.6587h-23.56506v-22.6587z" data-paper-data="{&quot;index&quot;:null}" fill="#fff800"/><path d="M328.38797,249.08743v22.6587h-23.56506v-22.6587z" data-paper-data="{&quot;index&quot;:null}" fill="#4ffa00"/><path d="M328.38797,273.38245v22.6587h-23.56506v-22.6587z" data-paper-data="{&quot;index&quot;:null}" fill="#ff0000"/><path d="M353.38798,224.7924v22.6587h-23.56506v-22.6587z" data-paper-data="{&quot;index&quot;:null}" fill="#6e89ff"/><path d="M353.38798,249.08743v22.6587h-23.56506v-22.6587z" data-paper-data="{&quot;index&quot;:null}" fill="#9bff6e"/><path d="M353.38798,273.38245v22.6587h-23.56506v-22.6587z" data-paper-data="{&quot;index&quot;:null}" fill="#009cff"/><path d="M378.38796,224.7924v22.6587h-23.56505v-22.6587z" data-paper-data="{&quot;index&quot;:null}" fill="#f96b6b"/><path d="M378.38796,249.08743v22.6587h-23.56505v-22.6587z" data-paper-data="{&quot;index&quot;:null}" fill="#00fab1"/><path d="M378.38796,273.38245v22.6587h-23.56505v-22.6587z" data-paper-data="{&quot;index&quot;:null}" fill="#10fa00"/><path d="M403.38796,224.7924v22.6587h-23.56505v-22.6587z" data-paper-data="{&quot;index&quot;:null}" fill="#4ffa00"/><path d="M403.38796,249.08743v22.6587h-23.56505v-22.6587z" data-paper-data="{&quot;index&quot;:null}" fill="#e6fa34"/><path d="M403.38796,273.38245v22.6587h-23.56505v-22.6587z" data-paper-data="{&quot;index&quot;:null}" fill="#8735ff"/><path d="M428.38796,224.7924v22.6587h-23.56505v-22.6587z" data-paper-data="{&quot;index&quot;:null}" fill="#e6fa34"/><path d="M428.38796,249.08743v22.6587h-23.56505v-22.6587z" data-paper-data="{&quot;index&quot;:null}" fill="#ff0000"/><path d="M428.38796,273.38245v22.6587h-23.56505v-22.6587z" data-paper-data="{&quot;index&quot;:null}" fill="#34fa55"/><path d="M453.38798,224.7924v22.6587h-23.56505v-22.6587z" data-paper-data="{&quot;index&quot;:null}" fill="#ff5757"/><path d="M453.38798,249.08743v22.6587h-23.56505v-22.6587z" data-paper-data="{&quot;index&quot;:null}" fill="#8735ff"/><path d="M453.38798,273.38245v22.6587h-23.56505v-22.6587z" data-paper-data="{&quot;index&quot;:null}" fill="#0090ff"/><path d="M478.38798,224.7924v22.6587h-23.56505v-22.6587z" data-paper-data="{&quot;index&quot;:null}" fill="#00ff90"/><path d="M478.38798,249.08743v22.6587h-23.56505v-22.6587z" data-paper-data="{&quot;index&quot;:null}" fill="#009cff"/><path d="M478.38798,273.38245v22.6587h-23.56505v-22.6587z" data-paper-data="{&quot;index&quot;:null}" fill="#e6fa34"/><path d="M503.38798,224.7924v22.6587h-23.56505v-22.6587z" data-paper-data="{&quot;index&quot;:null}" fill="#0090ff"/><path d="M503.38798,249.08743v22.6587h-23.56505v-22.6587z" data-paper-data="{&quot;index&quot;:null}" fill="#ff0000"/><path d="M503.38798,273.38245v22.6587h-23.56505v-22.6587z" data-paper-data="{&quot;index&quot;:null}" fill="#00ff90"/><path d="M3.38797,224.7924v22.6587h-23.56506v-22.6587z" data-paper-data="{&quot;index&quot;:null}" fill="#57b6ff"/><path d="M3.38797,249.08744v22.6587h-23.56506v-22.6587z" data-paper-data="{&quot;index&quot;:null}" fill="#0090ff"/><path d="M3.38797,273.38245v22.6587h-23.56506v-22.6587z" data-paper-data="{&quot;index&quot;:null}" fill="#00ff90"/><path d="M28.38797,224.7924v22.6587h-23.56506v-22.6587z" data-paper-data="{&quot;index&quot;:null}" fill="#ff5757"/><path d="M28.38797,249.08744v22.6587h-23.56506v-22.6587z" data-paper-data="{&quot;index&quot;:null}" fill="#8735ff"/><path d="M28.38797,273.38245v22.6587h-23.56506v-22.6587z" data-paper-data="{&quot;index&quot;:null}" fill="#36ffcd"/><path d="M53.38797,224.7924v22.6587h-23.56506v-22.6587z" data-paper-data="{&quot;index&quot;:null}" fill="#fff800"/><path d="M53.38797,249.08744v22.6587h-23.56506v-22.6587z" data-paper-data="{&quot;index&quot;:null}" fill="#4ffa00"/><path d="M53.38797,273.38245v22.6587h-23.56506v-22.6587z" data-paper-data="{&quot;index&quot;:null}" fill="#ff0000"/><path d="M78.38799,224.7924v22.6587h-23.56506v-22.6587z" data-paper-data="{&quot;index&quot;:null}" fill="#6e89ff"/><path d="M78.38799,249.08744v22.6587h-23.56506v-22.6587z" data-paper-data="{&quot;index&quot;:null}" fill="#9bff6e"/><path d="M78.38799,273.38245v22.6587h-23.56506v-22.6587z" data-paper-data="{&quot;index&quot;:null}" fill="#009cff"/><path d="M103.38797,224.7924v22.6587h-23.56505v-22.6587z" data-paper-data="{&quot;index&quot;:null}" fill="#f96b6b"/><path d="M103.38797,249.08744v22.6587h-23.56505v-22.6587z" data-paper-data="{&quot;index&quot;:null}" fill="#00fab1"/><path d="M103.38797,273.38245v22.6587h-23.56505v-22.6587z" data-paper-data="{&quot;index&quot;:null}" fill="#10fa00"/><path d="M128.38797,224.7924v22.6587h-23.56505v-22.6587z" data-paper-data="{&quot;index&quot;:null}" fill="#4ffa00"/><path d="M128.38797,249.08744v22.6587h-23.56505v-22.6587z" data-paper-data="{&quot;index&quot;:null}" fill="#e6fa34"/><path d="M128.38797,273.38245v22.6587h-23.56505v-22.6587z" data-paper-data="{&quot;index&quot;:null}" fill="#8735ff"/><path d="M153.38797,224.7924v22.6587h-23.56505v-22.6587z" data-paper-data="{&quot;index&quot;:null}" fill="#e6fa34"/><path d="M153.38797,249.08744v22.6587h-23.56505v-22.6587z" data-paper-data="{&quot;index&quot;:null}" fill="#ff0000"/><path d="M153.38797,273.38245v22.6587h-23.56505v-22.6587z" data-paper-data="{&quot;index&quot;:null}" fill="#34fa55"/><path d="M178.38799,224.7924v22.6587h-23.56505v-22.6587z" data-paper-data="{&quot;index&quot;:null}" fill="#ff5757"/><path d="M178.38799,249.08744v22.6587h-23.56505v-22.6587z" data-paper-data="{&quot;index&quot;:null}" fill="#8735ff"/><path d="M178.38799,273.38245v22.6587h-23.56505v-22.6587z" data-paper-data="{&quot;index&quot;:null}" fill="#0090ff"/><path d="M203.38799,224.7924v22.6587h-23.56505v-22.6587z" data-paper-data="{&quot;index&quot;:null}" fill="#00ff90"/><path d="M203.38799,249.08744v22.6587h-23.56505v-22.6587z" data-paper-data="{&quot;index&quot;:null}" fill="#009cff"/><path d="M203.38799,273.38245v22.6587h-23.56505v-22.6587z" data-paper-data="{&quot;index&quot;:null}" fill="#e6fa34"/><path d="M228.38799,224.7924v22.6587h-23.56505v-22.6587z" data-paper-data="{&quot;index&quot;:null}" fill="#0090ff"/><path d="M228.38799,249.08744v22.6587h-23.56505v-22.6587z" data-paper-data="{&quot;index&quot;:null}" fill="#ff0000"/><path d="M228.38799,273.38245v22.6587h-23.56505v-22.6587z" data-paper-data="{&quot;index&quot;:null}" fill="#00ff90"/><path d="M154.82291,296.04116v-22.6587h23.56506v22.6587z" fill="#fff800"/><path d="M154.82291,271.74613v-22.6587h23.56506v22.6587z" fill="#00ff21"/><path d="M154.82291,247.45109v-22.6587h23.56506v22.6587z" fill="#00ffff"/><path d="M179.82291,296.04116v-22.6587h23.56506v22.6587z" fill="#57b6ff"/><path d="M179.82291,271.74613v-22.6587h23.56506v22.6587z" fill="#0090ff"/><path d="M179.82291,247.45109v-22.6587h23.56506v22.6587z" fill="#00ff90"/><path d="M204.82291,296.04116v-22.6587h23.56506v22.6587z" fill="#ff5757"/><path d="M204.82291,271.74613v-22.6587h23.56506v22.6587z" fill="#8735ff"/><path d="M204.82291,247.45109v-22.6587h23.56506v22.6587z" fill="#36ffcd"/><path d="M229.82291,296.04116v-22.6587h23.56506v22.6587z" fill="#fff800"/><path d="M229.82291,271.74613v-22.6587h23.56506v22.6587z" fill="#4ffa00"/><path d="M229.82291,247.45109v-22.6587h23.56506v22.6587z" fill="#ff0000"/><path d="M254.82291,296.04116v-22.6587h23.56506v22.6587z" fill="#6e89ff"/><path d="M254.82291,271.74613v-22.6587h23.56506v22.6587z" fill="#9bff6e"/><path d="M254.82291,247.45109v-22.6587h23.56506v22.6587z" fill="#009cff"/><path d="M279.82291,296.04116v-22.6587h23.56505v22.6587z" fill="#f96b6b"/><path d="M279.82291,271.74613v-22.6587h23.56505v22.6587z" fill="#00fab1"/><path d="M279.82291,247.45109v-22.6587h23.56505v22.6587z" fill="#10fa00"/><path d="M304.82291,296.04116v-22.6587h23.56505v22.6587z" fill="#4ffa00"/><path d="M304.82291,271.74613v-22.6587h23.56505v22.6587z" fill="#e6fa34"/><path d="M304.82291,247.45109v-22.6587h23.56505v22.6587z" fill="#8735ff"/><path d="M329.82291,296.04116v-22.6587h23.56505v22.6587z" fill="#e6fa34"/><path d="M329.82291,271.74613v-22.6587h23.56505v22.6587z" fill="#ff0000"/><path d="M329.82291,247.45109v-22.6587h23.56505v22.6587z" fill="#34fa55"/><path d="M354.82293,296.04116v-22.6587h23.56505v22.6587z" fill="#ff5757"/><path d="M354.82293,271.74613v-22.6587h23.56505v22.6587z" fill="#8735ff"/><path d="M354.82293,247.45109v-22.6587h23.56505v22.6587z" fill="#0090ff"/><path d="M379.82293,296.04116v-22.6587h23.56505v22.6587z" fill="#00ff90"/><path d="M379.82293,271.74613v-22.6587h23.56505v22.6587z" fill="#009cff"/><path d="M379.82293,247.45109v-22.6587h23.56505v22.6587z" fill="#e6fa34"/><path d="M404.82293,296.04116v-22.6587h23.56505v22.6587z" fill="#0090ff"/><path d="M404.82293,271.74613v-22.6587h23.56505v22.6587z" fill="#ff0000"/><path d="M404.82293,247.45109v-22.6587h23.56505v22.6587z" fill="#00ff90"/><path d="M-22.01557,225.17546v22.6587h-23.56506v-22.6587z" data-paper-data="{&quot;index&quot;:null}" fill="#fff800"/><path d="M-22.01557,249.4705v22.6587h-23.56506v-22.6587z" data-paper-data="{&quot;index&quot;:null}" fill="#00ff21"/><path d="M-22.01557,273.76551v22.6587h-23.56506v-22.6587z" data-paper-data="{&quot;index&quot;:null}" fill="#00ffff"/><path d="M-21.10834,371.376v22.6587h-23.56506v-22.6587z" data-paper-data="{&quot;index&quot;:null}" fill="#fff800"/><path d="M-21.10834,395.67104v22.6587h-23.56506v-22.6587z" data-paper-data="{&quot;index&quot;:null}" fill="#00ff21"/><path d="M-21.10834,419.96609v22.6587h-23.56506v-22.6587z" data-paper-data="{&quot;index&quot;:null}" fill="#00ffff"/></g></g></svg>